<svg width="24" height="24" xmlns="http://www.w3.org/2000/svg">
 <title/>

 <g>
  <title>background</title>
  <rect fill="none" id="canvas_background" height="402" width="582" y="-1" x="-1"/>
 </g>
 <g>
  <title>Layer 1</title>
  <path fill="#62c4af" id="svg_1" d="m15.5,3l-7,0a5.5,5.5 0 0 0 -5.5,5.5l0,7a5.5,5.5 0 0 0 5.5,5.5l7,0a5.5,5.5 0 0 0 5.5,-5.5l0,-7a5.5,5.5 0 0 0 -5.5,-5.5zm4,12.5a4.00454,4.00454 0 0 1 -4,4l-7,0a4.00454,4.00454 0 0 1 -4,-4l0,-7a4.0045,4.0045 0 0 1 4,-4l7,0a4.0045,4.0045 0 0 1 4,4l0,7z"/>
  <path fill="#62c4af" id="svg_2" d="m12,7.5a4.5,4.5 0 1 0 4.5,4.5a4.5,4.5 0 0 0 -4.5,-4.5zm0,7.5a3,3 0 1 1 3,-3a3.0034,3.0034 0 0 1 -3,3z"/>
  <circle fill="#62c4af" id="svg_3" r="1" cy="7.29999" cx="16.70001"/>
 </g>
</svg>