<?xml version="1.0" encoding="utf-8"?>
<!-- Generator: Adobe Illustrator 17.0.0, SVG Export Plug-In . SVG Version: 6.00 Build 0)  -->
<!DOCTYPE svg PUBLIC "-//W3C//DTD SVG 1.1//EN" "http://www.w3.org/Graphics/SVG/1.1/DTD/svg11.dtd">
<svg version="1.1" id="Layer_1" xmlns="http://www.w3.org/2000/svg" xmlns:xlink="http://www.w3.org/1999/xlink" x="0px" y="0px"
	 width="38.5px" height="46.5px" viewBox="0 0 38.5 46.5" enable-background="new 0 0 38.5 46.5" xml:space="preserve">
<g>
	<title>background</title>
	<rect id="canvas_background" x="-1" y="-1" fill="none" width="540.5" height="373.335"/>
</g>
<g>
	<title>Layer 1</title>
	<path id="YouTube" fill="#62C4AF" d="M30.178,30.965h-1.8V29.9c0-0.477,0.367-0.845,0.845-0.845h0.11
		c0.477,0,0.845,0.367,0.845,0.845C30.178,29.9,30.178,30.965,30.178,30.965z M23.383,28.724c-0.477,0-0.845,0.294-0.845,0.698
		v5.142c0,0.367,0.367,0.698,0.845,0.698s0.845-0.294,0.845-0.698v-5.142C24.228,29.018,23.861,28.724,23.383,28.724z M34.438,25.86
		v9.732c0,2.35-2.02,4.26-4.517,4.26H11.411c-2.497,0-4.517-1.91-4.517-4.26V25.86c0-2.35,2.02-4.26,4.517-4.26h18.546
		C32.418,21.6,34.438,23.509,34.438,25.86z M12.623,36.657V26.374h2.314v-1.506H8.804v1.506h1.91v10.283H12.623z M19.527,27.917
		h-1.91v5.472c0,0.808,0.037,1.175,0,1.322c-0.147,0.441-0.845,0.881-1.138,0.037c-0.037-0.147,0-0.588,0-1.322v-5.509h-1.91v5.435
		c0,0.845-0.037,1.469,0,1.726c0.037,0.514,0.037,1.065,0.477,1.396c0.845,0.624,2.497-0.11,2.938-0.992v1.138h1.542V27.917
		L19.527,27.917z M25.66,34.196v-4.554c0-1.726-1.285-2.791-3.085-1.359v-3.379h-1.91V36.62l1.579-0.037l0.147-0.735
		C24.375,37.685,25.66,36.4,25.66,34.196z M31.647,33.609h-1.432c0,0.073,0,0.11,0,0.184V34.6c0,0.441-0.367,0.771-0.771,0.771
		h-0.294c-0.441,0-0.771-0.367-0.771-0.771v-0.073v-0.918v-1.102h3.305v-1.249c0-0.918-0.037-1.8-0.11-2.314
		c-0.22-1.653-2.534-1.91-3.709-1.065c-0.367,0.257-0.624,0.624-0.808,1.065c-0.147,0.477-0.257,1.102-0.257,1.946v2.718
		C26.799,38.126,32.308,37.502,31.647,33.609z M24.265,18.809c0.11,0.257,0.257,0.441,0.477,0.588c0.22,0.147,0.477,0.22,0.771,0.22
		s0.514-0.073,0.735-0.22s0.404-0.367,0.551-0.698l-0.037,0.735h2.13v-9.071h-1.689v7.088c0,0.367-0.331,0.698-0.698,0.698
		s-0.698-0.331-0.698-0.698v-7.088h-1.763v6.133c0,0.771,0,1.285,0.037,1.579C24.118,18.331,24.191,18.588,24.265,18.809z
		 M17.801,13.704c0-0.881,0.073-1.542,0.22-2.057c0.147-0.477,0.404-0.881,0.771-1.175s0.845-0.441,1.432-0.441
		c0.477,0,0.918,0.11,1.285,0.294s0.624,0.441,0.808,0.735c0.184,0.294,0.331,0.624,0.404,0.955c0.073,0.331,0.11,0.808,0.11,1.469
		v2.314c0,0.845-0.037,1.469-0.11,1.873c-0.073,0.404-0.22,0.771-0.404,1.102c-0.22,0.331-0.477,0.588-0.808,0.771
		C21.18,19.69,20.776,19.8,20.335,19.8c-0.477,0-0.881-0.073-1.249-0.22c-0.331-0.147-0.588-0.367-0.771-0.624
		c-0.184-0.294-0.331-0.624-0.404-1.028c-0.073-0.404-0.11-0.992-0.11-1.8V13.704L17.801,13.704z M19.491,17.303
		c0,0.514,0.367,0.918,0.845,0.918s0.845-0.404,0.845-0.918v-4.848c0-0.514-0.367-0.918-0.845-0.918s-0.845,0.404-0.845,0.918
		V17.303z M13.578,19.727h2.02v-6.978L17.985,6.8h-2.204l-1.249,4.444L13.211,6.8h-2.167l2.534,5.986V19.727z"/>
</g>
</svg>
