<svg xmlns="http://www.w3.org/2000/svg" id="Layer_1" data-name="Layer 1" viewBox="0 0 76.5 73.51" class="img-fluid svg lazyloading replaced-svg"><defs><style>.cls-1{fill:none;stroke:gray;stroke-miterlimit:10;stroke-width:3px;}.cls-2{isolation:isolate;font-size:14.64px;fill:gray;font-family:ArialMT, Arial;}</style></defs><title>icon55</title><path class="cls-1" d="M19,68.86H64.05c7-2.25,4.17-9.43,4.17-9.43H23.37s0,9.43-4.63,9.43" transform="translate(-2 -3.59)"></path><path class="cls-1" d="M13.22,29.43" transform="translate(-2 -3.59)"></path><polyline class="cls-1" points="1.5 4.63 1.5 15.88 10.76 15.88 10.76 4.63"></polyline><path class="cls-1" d="M59,45.51V59" transform="translate(-2 -3.59)"></path><path class="cls-1" d="M11.14,5.09H55.76a5.09,5.09,0,0,1,3.22,4V23.21" transform="translate(-2 -3.59)"></path><path class="cls-1" d="M15.51,65.27V58.09L24.76,50s1.85-4.49-3.23-4c-3.21,3.13-6,5.38-6,5.38H14.6s-1.38-8.54-1.38-10.79,1.85-5,3.23-6.74,4.16-5.39,2.31-7.18-3.7,0-6.47,3.14-5.1,5.38-5.55,8.53-1.85,16.17,0,21.55a29.69,29.69,0,0,1,.93,5.39" transform="translate(-2 -3.59)"></path><rect class="cls-1" x="1.97" y="61.68" width="14.79" height="10.33"></rect><rect class="cls-1" x="17.67" y="6" width="33.28" height="13.04"></rect><line class="cls-1" x1="22.77" y1="37.43" x2="45.41" y2="37.43"></line><line class="cls-1" x1="33.17" y1="46.42" x2="51.65" y2="46.42"></line><line class="cls-1" x1="33.63" y1="50.92" x2="39.64" y2="50.92"></line><line class="cls-1" x1="45.18" y1="50.92" x2="51.19" y2="50.92"></line><line class="cls-1" x1="25.31" y1="32.93" x2="31.32" y2="32.93"></line><line class="cls-1" x1="36.86" y1="32.93" x2="42.87" y2="32.93"></line><line class="cls-1" x1="53.03" y1="30.7" x2="55.35" y2="30.7"></line><line class="cls-1" x1="67.82" y1="30.7" x2="70.14" y2="30.7"></line><line class="cls-1" x1="25.31" y1="28.46" x2="31.32" y2="28.46"></line><line class="cls-1" x1="36.86" y1="28.46" x2="42.87" y2="28.46"></line><path class="cls-1" d="M73.54,42.84a13.06,13.06,0,0,1-9.49,4A12.77,12.77,0,0,1,51.11,34.27a13,13,0,0,1,25.89,0,12.36,12.36,0,0,1-1.89,6.56" transform="translate(-2 -3.59)"></path><text class="cls-2" transform="translate(56.43 36.11) scale(1.03 1)">$</text></svg>