<?xml version="1.0" encoding="utf-8"?>
<!-- Generator: Adobe Illustrator 17.0.0, SVG Export Plug-In . SVG Version: 6.00 Build 0)  -->
<!DOCTYPE svg PUBLIC "-//W3C//DTD SVG 1.1//EN" "http://www.w3.org/Graphics/SVG/1.1/DTD/svg11.dtd">
<svg version="1.1" id="Layer_2" xmlns="http://www.w3.org/2000/svg" xmlns:xlink="http://www.w3.org/1999/xlink" x="0px" y="0px"
	 width="72.75px" height="94px" viewBox="0 0 72.75 94" enable-background="new 0 0 72.75 94" xml:space="preserve">
<g>
	<path fill="none" stroke="#64D7BA" stroke-width="2" stroke-linecap="round" stroke-linejoin="round" stroke-miterlimit="10" d="
		M62.761,89.6H12.439C9.91,89.6,7.9,87.492,7.9,84.839V10.361C7.9,7.709,9.91,5.6,12.439,5.6H62.76c2.529,0,4.539,2.109,4.539,4.761
		v74.41C67.3,87.423,65.29,89.6,62.761,89.6z"/>
	
		<line fill="none" stroke="#64D7BA" stroke-width="2" stroke-linecap="round" stroke-linejoin="round" stroke-miterlimit="10" x1="16.59" y1="56" x2="58.675" y2="56"/>
	
		<line fill="none" stroke="#64D7BA" stroke-width="2" stroke-linecap="round" stroke-linejoin="round" stroke-miterlimit="10" x1="16.59" y1="67.631" x2="25.214" y2="67.631"/>
	<g>
		
			<ellipse fill="none" stroke="#64D7BA" stroke-width="2" stroke-linecap="round" stroke-linejoin="round" stroke-miterlimit="10" cx="49.662" cy="72.188" rx="10.376" ry="10.883"/>
		
			<line fill="none" stroke="#64D7BA" stroke-width="2" stroke-linecap="round" stroke-linejoin="round" stroke-miterlimit="10" x1="56.535" y1="64.842" x2="43.242" y2="80.078"/>
	</g>
</g>
<path fill="none" stroke="#64D7BA" stroke-width="2" stroke-linecap="round" stroke-linejoin="round" stroke-miterlimit="10" d="
	M27.75,38.371c-2.377,0-7.725,1.19-9.508-7.026c-1.513-3.06-3.836-6.403-0.864-7.31c3.025-0.85,13.182-4.363,13.182-4.363
	s0.918-5.836,5.565-7.706c3.998-1.643,10.589-2.55,15.289,0.453"/>
<path fill="none" stroke="#64D7BA" stroke-width="2" stroke-linecap="round" stroke-linejoin="round" stroke-miterlimit="10" d="
	M54.383,14.912c0,0,1.567,1.587,2.593,3.91c1.027,2.323,2.755,5.27,2.755,5.27"/>
<path fill="none" stroke="#64D7BA" stroke-width="2" stroke-linecap="round" stroke-linejoin="round" stroke-miterlimit="10" d="
	M30.397,38.314c0,0,7.401,0,9.292,0s4.538-1.473,6.267-2.606c1.621,4.193,1.729,7.253,1.729,9.35
	c1.242-1.077,4.268,1.587,4.916,9.067"/>
<path fill="none" stroke="#64D7BA" stroke-width="2" stroke-linecap="round" stroke-linejoin="round" stroke-miterlimit="10" d="
	M37.258,38.428c0,0,5.996,0.51,8.265,12.352c1.621,0.114,2.107-0.68,2.107-0.68s1.027,2.606,0.864,4.363"/>
<path fill="none" stroke="#64D7BA" stroke-width="2" stroke-linecap="round" stroke-linejoin="round" stroke-miterlimit="10" d="
	M21.483,23.185c0,0,1.729,4.476-2.647,8.443"/>
<path fill="none" stroke="#64D7BA" stroke-width="2" stroke-linecap="round" stroke-linejoin="round" stroke-miterlimit="10" d="
	M40.175,24.772c0,0-0.756-3.797-0.108-6.97s2.269-5.156,5.618-3.173s3.242,2.21,5.511,2.776c2.269,0.51,3.025,3.003,2.377,5.666
	c-0.594,2.606-3.998,6.913-6.861,9.179s-3.998,0.284-5.78-3.967"/>
<line fill="none" stroke="#64D7BA" stroke-width="2" stroke-linecap="round" stroke-linejoin="round" stroke-miterlimit="10" x1="34.571" y1="21.544" x2="34.571" y2="22.972"/>
</svg>
