<svg xmlns="http://www.w3.org/2000/svg" id="Layer_1" data-name="Layer 1" viewBox="0 0 75.32 62.6" class="img-fluid svg lazyloading replaced-svg"><defs><style>.cls-1{fill:none;stroke:gray;stroke-miterlimit:10;stroke-width:3px;}.cls-2{fill:gray;}</style></defs><title>icon66</title><line class="cls-1" x1="2.2" y1="52.37" x2="0.36" y2="52.37"></line><path class="cls-1" d="M4.54,56.54V45.94h5.94a2.8,2.8,0,0,1,2.79,2.8v9.81a2.8,2.8,0,0,1-2.79,2.8H9.36" transform="translate(-3.04 -9)"></path><path class="cls-1" d="M26,57.23l6.92,6A3.37,3.37,0,0,0,37,62.75c2.31-1.84-.47-4.15-.47-4.15L26,48.94A7,7,0,0,0,22.28,48H13.39V59.14l4.31-.07,9.21,9.66a5,5,0,0,0,3.21,1.38H48.55a3.1,3.1,0,0,0,2.31-3.22,2.45,2.45,0,0,0-2.31-2.77H41.19" transform="translate(-3.04 -9)"></path><circle class="cls-2" cx="17.4" cy="34.87" r="1.37"></circle><circle class="cls-2" cx="17.64" cy="30.49" r="1.37"></circle><circle class="cls-2" cx="17.64" cy="25.88" r="1.37"></circle><circle class="cls-2" cx="19.48" cy="21.73" r="1.37"></circle><circle class="cls-2" cx="21.78" cy="18.52" r="1.37"></circle><circle class="cls-2" cx="24.99" cy="15.31" r="1.37"></circle><circle class="cls-2" cx="28.21" cy="13" r="1.37"></circle><circle class="cls-2" cx="32.82" cy="11.61" r="1.37"></circle><line class="cls-1" x1="73.12" y1="10.23" x2="74.96" y2="10.23"></line><path class="cls-1" d="M76.86,24.07v10.6H70.92a2.79,2.79,0,0,1-2.79-2.79V22.06a2.79,2.79,0,0,1,2.79-2.79H72" transform="translate(-3.04 -9)"></path><path class="cls-1" d="M55.44,23.38l-6.92-6a3.37,3.37,0,0,0-4.14.47c-2.31,1.84.47,4.14.47,4.14l10.59,9.67a7,7,0,0,0,3.68.93H68V21.47l-4.31.07-9.22-9.67a5.05,5.05,0,0,0-3.21-1.37H32.85a3.09,3.09,0,0,0-2.3,3.21c0,2.75,2.3,2.77,2.3,2.77h7.36" transform="translate(-3.04 -9)"></path><circle class="cls-2" cx="57.92" cy="27.74" r="1.37"></circle><circle class="cls-2" cx="57.68" cy="32.1" r="1.37"></circle><circle class="cls-2" cx="57.68" cy="36.7" r="1.37"></circle><circle class="cls-2" cx="55.84" cy="40.85" r="1.37"></circle><circle class="cls-2" cx="53.54" cy="44.09" r="1.37"></circle><circle class="cls-2" cx="50.32" cy="47.3" r="1.37"></circle><circle class="cls-2" cx="47.09" cy="49.6" r="1.37"></circle><circle class="cls-2" cx="42.5" cy="50.98" r="1.37"></circle><path class="cls-1" d="M40,36.74s5.51-6,9.22-1.37-.47,7.36-.47,7.36l-7.82,6.91-.68.7" transform="translate(-3.04 -9)"></path><path class="cls-1" d="M41.07,36.74s-5.51-6-9.22-1.37.47,7.36.47,7.36l7.82,6.91.91.79" transform="translate(-3.04 -9)"></path></svg>