<svg xmlns="http://www.w3.org/2000/svg" id="Layer_1" data-name="Layer 1" viewBox="0 0 76.95 69.59" class="img-fluid svg lazyloading replaced-svg"><defs><style>.cls-1{fill:none;stroke:gray;stroke-miterlimit:10;stroke-width:3px;}</style></defs><title>icon44</title><path class="cls-1" d="M2.57,7.41H15.26s4.57,1,3.54,5.09c6.6,0,9.66-.52,10.66,5.08s-8.12,5.09-8.12,5.09H2.57" transform="translate(-2.57 -5.91)"></path><line class="cls-1" x1="51.06" y1="2.78" x2="53.6" y2="2.78"></line><line class="cls-1" x1="31.26" y1="2.78" x2="47.52" y2="2.78"></line><line class="cls-1" x1="64.52" y1="7.84" x2="67.06" y2="7.84"></line><line class="cls-1" x1="44.72" y1="7.84" x2="60.98" y2="7.84"></line><path class="cls-1" d="M78.77,58.73H66.09s-4.58,1-3.55,5.09c-6.6,0-9.66-.52-10.66,5.08S60,74,60,74H78.8" transform="translate(-2.57 -5.91)"></path><line class="cls-1" x1="25.15" y1="54.08" x2="22.6" y2="54.08"></line><line class="cls-1" x1="44.97" y1="54.08" x2="28.72" y2="54.08"></line><line class="cls-1" x1="11.69" y1="59.16" x2="9.14" y2="59.16"></line><line class="cls-1" x1="31.52" y1="59.16" x2="15.26" y2="59.16"></line><line class="cls-1" x1="61.49" y1="12.93" x2="64.01" y2="12.93"></line><line class="cls-1" x1="41.66" y1="12.93" x2="57.92" y2="12.93"></line><path class="cls-1" d="M76.49,28.5,63,45.53H6.14s.51-8.12,7.63-10.17c33.51,0,47-.26,47-.26l7.37-6.86Z" transform="translate(-2.57 -5.91)"></path><polygon class="cls-1" points="38.12 28.93 45.72 17.76 36.09 17.76 25.4 28.93 38.12 28.93"></polygon><polygon class="cls-1" points="24.4 39.44 37.6 39.62 43.69 52.82 35.06 53.33 24.4 39.44"></polygon><line class="cls-1" x1="56.15" y1="29.19" x2="68.35" y2="29.19"></line><line class="cls-1" x1="5.86" y1="34.79" x2="11.94" y2="34.79"></line><line class="cls-1" x1="15" y1="34.79" x2="18.03" y2="34.79"></line><line class="cls-1" x1="19.83" y1="34.79" x2="22.86" y2="34.79"></line><line class="cls-1" x1="25.15" y1="34.79" x2="28.2" y2="34.79"></line><line class="cls-1" x1="29.97" y1="34.79" x2="33.03" y2="34.79"></line><line class="cls-1" x1="35.32" y1="34.79" x2="38.37" y2="34.79"></line><line class="cls-1" x1="40.15" y1="34.79" x2="43.18" y2="34.79"></line><line class="cls-1" x1="45.46" y1="34.79" x2="48.52" y2="34.79"></line><line class="cls-1" x1="50.29" y1="34.79" x2="53.35" y2="34.79"></line><line class="cls-1" x1="55.38" y1="34.79" x2="58.43" y2="34.79"></line></svg>