<svg xmlns="http://www.w3.org/2000/svg" id="Layer_1" data-name="Layer 1" viewBox="0 0 73.17 72.79" class="img-fluid svg lazyloading replaced-svg"><defs><style>.cls-1{fill:none;stroke:gray;stroke-miterlimit:10;stroke-width:3px;}</style></defs><title>icon33</title><path class="cls-1" d="M31.18,70.2Z" transform="translate(-3.51 -6.23)"></path><path class="cls-1" d="M49.31,2Z" transform="translate(-3.51 -6.23)"></path><polyline class="cls-1" points="25.77 11.55 21.47 11.55 21.47 6.77 24.34 6.77 24.34 1.5 13.83 1.5 13.83 6.77 17.16 6.77 17.16 10.58 2.35 10.58 2.35 40.7 36.28 6.77 70.93 41.42 70.93 12.04 48.24 12.04"></polyline><path class="cls-1" d="M10.65,48.83V69.37S.62,70.8,7.32,77A155.55,155.55,0,0,0,23.1,77s4.3-3.82-.49-4.79c-1-2.39-5.26-10-10,0a27.26,27.26,0,0,1-1.91-2.88" transform="translate(-3.51 -6.23)"></path><line class="cls-1" x1="11.44" y1="56.47" x2="26.25" y2="56.47"></line><polyline class="cls-1" points="23.86 55.99 23.86 42.14 14.31 42.14 14.31 55.99"></polyline><line class="cls-1" x1="14.77" y1="49.3" x2="23.38" y2="49.3"></line><line class="cls-1" x1="47.28" y1="56.47" x2="62.09" y2="56.47"></line><polyline class="cls-1" points="59.72 55.99 59.72 42.14 50.15 42.14 50.15 55.99"></polyline><line class="cls-1" x1="50.63" y1="49.3" x2="59.24" y2="49.3"></line><polyline class="cls-1" points="48.24 66.04 26.25 66.04 26.25 71.77"></polyline><polyline class="cls-1" points="30.55 71.29 67.36 71.29 67.36 43.09"></polyline><path class="cls-1" d="M56.06,77s-1.91-5.27,2.87-4.79c-1-2.39,6.21-9.56,9.08,0,1.91-3.33,6.21-4.3,7.18,1,0,3.34-1.91,4.3-4.79,4.3H56.08V77Z" transform="translate(-3.51 -6.23)"></path></svg>