<svg xmlns="http://www.w3.org/2000/svg" id="Layer_1" data-name="Layer 1" viewBox="0 0 80.94 77.5" class="img-fluid svg lazyloading replaced-svg"><defs><style>.cls-1{fill:none;stroke:gray;stroke-miterlimit:10;stroke-width:3px;}</style></defs><title>icon11</title><rect class="cls-1" x="19.83" y="15.94" width="27.88" height="19.63" transform="translate(-8.17 31.47) rotate(-46.43)"></rect><path class="cls-1" d="M55.6,20.42l-3.29,3.47a.45.45,0,0,1-.63,0L33.61,6.74a.46.46,0,0,1,0-.63l3.29-3.47a.44.44,0,0,1,.62,0L55.57,19.79A.45.45,0,0,1,55.6,20.42Z" transform="translate(0 -1)"></path><path class="cls-1" d="M32.47,44.76l-3.32,3.47a.45.45,0,0,1-.63,0L10.46,31.07a.44.44,0,0,1,0-.62L13.72,27a.46.46,0,0,1,.63,0L32.41,44.13a.43.43,0,0,1,.08.6Z" transform="translate(0 -1)"></path><path class="cls-1" d="M49,37.81,60.38,48.59a.88.88,0,0,1,0,1.24l0,0-2.71,2.82a.88.88,0,0,1-1.24,0l0,0L39,36.11a.87.87,0,0,1,0-1.23v0L41.68,32a.88.88,0,0,1,1.24,0l0,0,2.21,2.11" transform="translate(0 -1)"></path><path class="cls-1" d="M79.31,63.66l-6.87,7.2a.45.45,0,0,1-.63,0L55.62,55.49a.46.46,0,0,1,0-.63l6.86-7.21a.45.45,0,0,1,.63,0L79.28,63a.41.41,0,0,1,.07.58Z" transform="translate(0 -1)"></path><path class="cls-1" d="M49,77H1.5V69.56a1.33,1.33,0,0,1,1.33-1.33H47.69A1.33,1.33,0,0,1,49,69.56Z" transform="translate(0 -1)"></path><path class="cls-1" d="M20.43,59.43H39.67a2.63,2.63,0,0,1,2.64,2.62v6.18H8.73V62.07a2.63,2.63,0,0,1,2.62-2.64h2.73" transform="translate(0 -1)"></path></svg>