<?xml version="1.0" encoding="utf-8"?>
<!-- Generator: Adobe Illustrator 17.0.0, SVG Export Plug-In . SVG Version: 6.00 Build 0)  -->
<!DOCTYPE svg PUBLIC "-//W3C//DTD SVG 1.1//EN" "http://www.w3.org/Graphics/SVG/1.1/DTD/svg11.dtd">
<svg version="1.1" id="Layer_1" xmlns="http://www.w3.org/2000/svg" xmlns:xlink="http://www.w3.org/1999/xlink" x="0px" y="0px"
	 width="75px" height="75px" viewBox="0 0 75 75" enable-background="new 0 0 75 75" xml:space="preserve">
<g>
	<path fill="none" stroke="#64D7BA" stroke-width="1.6" stroke-linecap="round" stroke-linejoin="round" stroke-miterlimit="10" d="
		M11.675,60.693L11.675,60.693c-2.738-1.124-4.047-4.256-2.922-6.994l8.773-21.366l9.916,4.071L18.669,57.77
		C17.545,60.509,14.414,61.818,11.675,60.693z"/>
	
		<rect x="18.271" y="31.273" transform="matrix(-0.9251 -0.3798 0.3798 -0.9251 31.4024 71.8371)" fill="none" stroke="#64D7BA" stroke-width="1.6" stroke-linecap="round" stroke-linejoin="round" stroke-miterlimit="10" width="9.032" height="3.096"/>
	<path fill="none" stroke="#64D7BA" stroke-width="1.6" stroke-linecap="round" stroke-linejoin="round" stroke-miterlimit="10" d="
		M20.428,29.729c0,0,0-0.403-1.276-4.972c-0.739-3.09-0.202-4.904,1.478-7.861c1.68-2.956,2.419-4.233,2.419-4.233
		s1.008-0.941,1.881-0.47c0.873,0.47,1.075,1.142,0.739,1.747s-3.292,6.45-3.225,9.473"/>
	<path fill="none" stroke="#64D7BA" stroke-width="1.6" stroke-linecap="round" stroke-linejoin="round" stroke-miterlimit="10" d="
		M26.945,32.618c0,0,1.536-1.647,0.067-5.375s-1.142-4.703-1.411-6.248c-0.269-1.545-1.359-2.012-1.814-1.747"/>
</g>
<g>
	<path fill="none" stroke="#64D7BA" stroke-width="1.6" stroke-linecap="round" stroke-linejoin="round" stroke-miterlimit="10" d="
		M62.416,60.668L62.416,60.668c2.738-1.124,4.047-4.256,2.922-6.994l-8.773-21.366l-9.916,4.071l8.773,21.366
		C56.546,60.484,59.677,61.792,62.416,60.668z"/>
	
		<rect x="46.787" y="31.244" transform="matrix(0.9251 -0.3798 0.3798 0.9251 -8.6102 21.9415)" fill="none" stroke="#64D7BA" stroke-width="1.6" stroke-linecap="round" stroke-linejoin="round" stroke-miterlimit="10" width="9.032" height="3.096"/>
	<path fill="none" stroke="#64D7BA" stroke-width="1.6" stroke-linecap="round" stroke-linejoin="round" stroke-miterlimit="10" d="
		M53.663,29.704c0,0,0-0.403,1.276-4.972c0.739-3.09,0.202-4.904-1.478-7.861s-2.419-4.233-2.419-4.233s-1.008-0.941-1.881-0.47
		c-0.873,0.47-1.075,1.142-0.739,1.747c0.336,0.605,3.292,6.45,3.225,9.473"/>
	<path fill="none" stroke="#64D7BA" stroke-width="1.6" stroke-linecap="round" stroke-linejoin="round" stroke-miterlimit="10" d="
		M47.146,32.593c0,0-1.536-1.647-0.067-5.375s1.142-4.703,1.411-6.248c0.269-1.545,1.359-2.012,1.814-1.747"/>
</g>
<path fill="none" stroke="#64D7BA" stroke-width="1.6" stroke-linecap="round" stroke-linejoin="round" stroke-miterlimit="10" d="
	M26.575,38.53c0,0,3.46,6.517,10.447,6.517s10.414-6.853,10.414-6.853"/>
<path fill="none" stroke="#64D7BA" stroke-width="1.6" stroke-linecap="round" stroke-linejoin="round" stroke-miterlimit="10" d="
	M25.265,12.328c0,0,4.837-4.233,9.54-4.233s7.726,3.829,7.726,3.829s3.561-1.881,6.92,0.067"/>
<path fill="none" stroke="#64D7BA" stroke-width="1.6" stroke-linecap="round" stroke-linejoin="round" stroke-miterlimit="10" d="
	M41.28,39.051c-0.895-1.335-2.412-2.217-4.141-2.217c-1.728,0-3.246,0.882-4.141,2.217"/>
<circle fill="none" stroke="#64D7BA" stroke-width="1.6" stroke-linecap="round" stroke-linejoin="round" stroke-miterlimit="10" cx="32.756" cy="30.838" r="1.209"/>
<circle fill="none" stroke="#64D7BA" stroke-width="1.6" stroke-linecap="round" stroke-linejoin="round" stroke-miterlimit="10" cx="41.49" cy="30.838" r="1.209"/>
<polyline fill="none" stroke="#64D7BA" stroke-width="1.6" stroke-linecap="round" stroke-linejoin="round" stroke-miterlimit="10" points="
	31.782,43.972 31.782,47.197 34.469,52.639 39.844,52.639 42.397,47.13 42.397,43.703 "/>
<path fill="none" stroke="#64D7BA" stroke-width="1.6" stroke-linecap="round" stroke-linejoin="round" stroke-miterlimit="10" d="
	M40.381,52.504l3.013,3.984c0.41,0.542,1.257,0.415,1.49-0.224l2.887-7.925"/>
<line fill="none" stroke="#64D7BA" stroke-width="1.6" stroke-linecap="round" stroke-linejoin="round" stroke-miterlimit="10" x1="42.666" y1="47.063" x2="51.534" y2="49.011"/>
<path fill="none" stroke="#64D7BA" stroke-width="1.6" stroke-linecap="round" stroke-linejoin="round" stroke-miterlimit="10" d="
	M33.831,52.74l-3.013,3.984c-0.41,0.542-1.257,0.415-1.49-0.224l-2.887-7.925"/>
<line fill="none" stroke="#64D7BA" stroke-width="1.6" stroke-linecap="round" stroke-linejoin="round" stroke-miterlimit="10" x1="31.547" y1="47.298" x2="22.678" y2="49.246"/>
<path fill="none" stroke="#64D7BA" stroke-width="1.6" stroke-linecap="round" stroke-linejoin="round" stroke-miterlimit="10" d="
	M14.314,61.02l7.937-0.76c0.823-0.079,1.536,0.569,1.536,1.396v5.663l26.706-0.101l0.04-5.657c0.006-0.829,0.726-1.472,1.55-1.384
	l7.933,0.844"/>
<path fill="none" stroke="#64D7BA" stroke-width="1.6" stroke-linecap="round" stroke-linejoin="round" stroke-miterlimit="10" d="
	M48.124,22.574c-5.996,0.756-8.768-3.225-8.868-3.074c-6.349,7.054-13.302,4.333-13.302,4.333"/>
<path fill="none" stroke="#F05D65" stroke-width="1.5" stroke-linecap="round" stroke-linejoin="round" stroke-miterlimit="10" d="
	M15.793,24.154c0,0.371-0.149,0.705-0.395,0.947c-0.246,0.246-0.58,0.395-0.951,0.395h-1.008v1.008c0,0.742-0.601,1.342-1.342,1.342
	c-0.742,0-1.342-0.601-1.342-1.342v-1.008H9.747c-0.742,0-1.346-0.601-1.346-1.342s0.605-1.346,1.346-1.346h1.008V21.8
	c0-0.742,0.601-1.342,1.342-1.342c0.371,0,0.705,0.149,0.951,0.395c0.242,0.242,0.391,0.576,0.391,0.947v1.008h1.008
	C15.189,22.808,15.793,23.412,15.793,24.154z"/>
<g>
	<path fill="#FFCD2B" d="M5.143,36.431c0.724,0,1.31,0.587,1.31,1.31s-0.587,1.31-1.31,1.31s-1.31-0.587-1.31-1.31
		S4.42,36.431,5.143,36.431 M5.143,34.431c-1.825,0-3.31,1.485-3.31,3.31s1.485,3.31,3.31,3.31s3.31-1.485,3.31-3.31
		S6.969,34.431,5.143,34.431L5.143,34.431z"/>
</g>
<g>
	<path fill="#FFCD2B" d="M52.659,7.306c0.724,0,1.31,0.587,1.31,1.31s-0.587,1.31-1.31,1.31s-1.31-0.587-1.31-1.31
		S51.936,7.306,52.659,7.306 M52.659,5.306c-1.825,0-3.31,1.485-3.31,3.31s1.485,3.31,3.31,3.31s3.31-1.485,3.31-3.31
		S54.485,5.306,52.659,5.306L52.659,5.306z"/>
</g>
<circle fill="none" stroke="#62BAE1" stroke-width="1.5" stroke-miterlimit="10" cx="59.966" cy="33.508" r="1.31"/>
<path fill="none" stroke="#29B78F" stroke-width="1.5" stroke-linecap="round" stroke-linejoin="round" stroke-miterlimit="10" d="
	M62.922,20.209c2.319,0,4.199,1.88,4.199,4.199"/>
<path fill="none" stroke="#29B78F" stroke-width="1.5" stroke-linecap="round" stroke-linejoin="round" stroke-miterlimit="10" d="
	M67.121,24.438c0-2.319,1.88-4.199,4.199-4.199"/>
<path fill="none" stroke="#29B78F" stroke-width="1.5" stroke-linecap="round" stroke-linejoin="round" stroke-miterlimit="10" d="
	M67.121,16.04c0,2.319-1.88,4.199-4.199,4.199"/>
<path fill="none" stroke="#29B78F" stroke-width="1.5" stroke-linecap="round" stroke-linejoin="round" stroke-miterlimit="10" d="
	M71.32,20.27c-2.319,0-4.199-1.88-4.199-4.199"/>
</svg>
