<?xml version="1.0" encoding="utf-8"?>
<!-- Generator: Adobe Illustrator 17.0.0, SVG Export Plug-In . SVG Version: 6.00 Build 0)  -->
<!DOCTYPE svg PUBLIC "-//W3C//DTD SVG 1.1//EN" "http://www.w3.org/Graphics/SVG/1.1/DTD/svg11.dtd">
<svg version="1.1" id="Layer_2" xmlns="http://www.w3.org/2000/svg" xmlns:xlink="http://www.w3.org/1999/xlink" x="0px" y="0px"
	 width="104.5px" height="93.5px" viewBox="0 0 104.5 93.5" enable-background="new 0 0 104.5 93.5" xml:space="preserve">
<g>
	<g>
		<path fill="none" stroke="#64D7BA" stroke-width="2" stroke-linecap="round" stroke-linejoin="round" stroke-miterlimit="10" d="
			M38.525,42.69c-1.463,2.757-2.87,6.19-3.714,10.354c0,0,0,0,0,0.056H8.87c-0.113,0-0.225,0-0.338,0C7.069,52.875,6,51.693,6,50.23
			v-4.614c0-1.576,1.294-2.87,2.87-2.87h29.711V42.69H38.525z"/>
	</g>
	<g>
		<path fill="none" stroke="#64D7BA" stroke-width="2" stroke-linecap="round" stroke-linejoin="round" stroke-miterlimit="10" d="
			M34.811,52.987c-0.45,2.251-0.732,4.671-0.788,7.315c0,1.013,0.056,2.026,0.225,2.982c0,0,0,0,0,0.056H8.87
			c-0.113,0-0.225,0-0.338,0C7.069,63.116,6,61.935,6,60.472v-4.671c0-1.463,1.125-2.645,2.532-2.87c0.113,0,0.225,0,0.338,0h25.941
			V52.987z"/>
	</g>
	<g>
		<path fill="none" stroke="#64D7BA" stroke-width="2" stroke-linecap="round" stroke-linejoin="round" stroke-miterlimit="10" d="
			M38.975,73.695H8.87c-0.113,0-0.225,0-0.338,0C7.069,73.47,6,72.288,6,70.825v-4.614c0-1.463,1.125-2.645,2.532-2.87
			c0.113,0,0.225,0,0.338,0h25.435c0,0,0,0,0,0.056C34.867,67.224,36.668,70.713,38.975,73.695L38.975,73.695z"/>
	</g>
	<g>
		<path fill="none" stroke="#64D7BA" stroke-width="2" stroke-linecap="round" stroke-linejoin="round" stroke-miterlimit="10" d="
			M50.229,83.43c-0.45,0.394-1.125,0.675-1.801,0.675H8.87c-1.576,0-2.87-1.294-2.87-2.87v-4.671c0-1.463,1.125-2.645,2.532-2.87
			c0.113,0,0.225,0,0.338,0h30.161c0,0,0,0,0,0.056C42.407,77.972,46.797,81.292,50.229,83.43z"/>
	</g>
</g>
<g>
	<path fill="none" stroke="#64D7BA" stroke-width="2" stroke-linecap="round" stroke-linejoin="round" stroke-miterlimit="10" d="
		M66.21,86.3c-22.902,0-52.895-23.015-11.423-63.98l-0.506,1.351l17.388-0.056h3.939h2.87l-0.45-0.732
		C118.88,63.398,89.056,86.3,66.21,86.3z"/>
	<path fill="none" stroke="#64D7BA" stroke-width="2" stroke-linecap="round" stroke-linejoin="round" stroke-miterlimit="10" d="
		M81.685,6.226l-4.389,14.068h-0.338l0.675-3.151H54.956l0.45,3.151h-0.113L50.848,5.551c3.264-1.182,5.627,3.489,8.666,3.264
		c3.095-0.225,2.363-2.251,4.389-2.814c3.658-0.957,4.558,3.826,7.822,3.095C73.357,8.646,74.763,4.819,81.685,6.226z"/>
	<g id="XMLID_2_">
		
			<path id="XMLID_3_" fill="none" stroke="#64D7BA" stroke-width="2" stroke-linecap="round" stroke-linejoin="round" stroke-miterlimit="10" d="
			M73.019,52.762c-1.519-1.069-3.207-1.913-5.064-2.588v-6.19c0.788,0.225,1.519,0.506,2.195,1.069
			c0.675,0.506,1.294,1.069,1.801,1.576l3.264-3.207c-0.619-0.619-1.182-1.069-1.744-1.519c-0.506-0.45-1.069-0.788-1.576-1.125
			c-0.506-0.338-1.125-0.506-1.744-0.732c-0.619-0.225-1.351-0.338-2.195-0.394v-2.476h-3.32v2.532
			c-0.957,0.113-1.801,0.338-2.757,0.732c-0.844,0.338-1.688,0.788-2.42,1.407c-0.675,0.619-1.294,1.294-1.688,2.082
			c-0.394,0.788-0.675,1.744-0.675,2.814c0,2.082,0.732,3.714,2.195,4.896c1.182,0.957,2.926,1.801,5.177,2.645v6.865
			c-1.013-0.281-1.801-0.675-2.476-1.182c-0.675-0.506-1.294-1.294-1.744-2.138l-3.601,3.095c1.069,1.407,2.195,2.42,3.376,3.151
			c1.182,0.732,2.645,1.125,4.389,1.351v4.22h3.32v-4.22c2.195-0.225,3.939-0.788,5.177-1.801c1.519-1.182,2.363-2.926,2.476-5.177
			l0,0c0-0.113,0-0.281,0-0.394C75.607,55.688,74.763,53.944,73.019,52.762z M67.955,55.463c0.675,0.338,1.182,0.619,1.576,0.844
			c0.957,0.506,1.407,1.182,1.407,2.082c0,0.45-0.056,0.844-0.281,1.125c-0.225,0.338-0.394,0.619-0.675,0.788
			c-0.281,0.225-0.619,0.394-1.013,0.506s-0.732,0.225-1.125,0.281v-5.683h0.113v0.057H67.955z M63.734,48.486
			c-0.338-0.113-0.619-0.338-0.844-0.506c-0.225-0.169-0.45-0.45-0.675-0.732c-0.225-0.281-0.281-0.619-0.281-0.957
			c0-0.394,0.056-0.675,0.281-1.013c0.225-0.281,0.394-0.506,0.675-0.732c0.281-0.225,0.506-0.338,0.844-0.45
			c0.338-0.113,0.675-0.225,1.013-0.281v5.008C64.353,48.711,64.072,48.598,63.734,48.486z"/>
	</g>
	<path fill="none" stroke="#64D7BA" stroke-width="2" stroke-linecap="round" stroke-linejoin="round" stroke-miterlimit="10" d="
		M84.611,47.417c-2.645,0.394-5.121-1.576-5.458-4.277c-1.013-8.384-5.121-15.925-7.315-19.526h3.939
		c5.74,6.246,10.129,12.942,11.479,19.188C87.818,46.01,86.355,47.135,84.611,47.417z"/>
	<path fill="none" stroke="#64D7BA" stroke-width="2" stroke-linecap="round" stroke-linejoin="round" stroke-miterlimit="10" d="
		M78.59,23.501h-2.87h-3.939l-17.388,0.056l0.506-1.351c0.675-0.619,0.506-1.913,0.506-1.913l-0.45-3.151h22.677l-0.675,3.151
		c0,0,0.338,1.576,1.125,2.42L78.59,23.501z"/>
</g>
<circle fill="none" stroke="#64D7BA" stroke-width="2" stroke-linecap="round" stroke-linejoin="round" stroke-miterlimit="10" cx="27.439" cy="22.995" r="13.786"/>
<line fill="none" stroke="#64D7BA" stroke-width="2" stroke-linecap="round" stroke-linejoin="round" stroke-miterlimit="10" x1="34.98" y1="15.623" x2="20.912" y2="29.691"/>
<line fill="none" stroke="#64D7BA" stroke-width="2" stroke-linecap="round" stroke-linejoin="round" stroke-miterlimit="10" x1="34.98" y1="29.691" x2="20.912" y2="15.623"/>
</svg>
