<?xml version="1.0" encoding="utf-8"?>
<!-- Generator: Adobe Illustrator 17.0.0, SVG Export Plug-In . SVG Version: 6.00 Build 0)  -->
<!DOCTYPE svg PUBLIC "-//W3C//DTD SVG 1.1//EN" "http://www.w3.org/Graphics/SVG/1.1/DTD/svg11.dtd">
<svg version="1.1" id="Layer_1" xmlns="http://www.w3.org/2000/svg" xmlns:xlink="http://www.w3.org/1999/xlink" x="0px" y="0px"
	 width="86.75px" height="92.5px" viewBox="0 0 86.75 92.5" enable-background="new 0 0 86.75 92.5" xml:space="preserve">
<g>
	<g>
		<path fill="none" stroke="#64D7BA" stroke-width="1.6" stroke-miterlimit="10" d="M15.414,74.002h6.039v9.937h-6.039V74.002z"/>
		<path fill="none" stroke="#64D7BA" stroke-width="1.6" stroke-miterlimit="10" d="M70.312,83.939h-6.039v-9.937h6.039V83.939z"/>
		<path fill="none" stroke="#64D7BA" stroke-width="1.6" stroke-miterlimit="10" d="M68.711,46.747v11.681H17.015V46.747
			c0-2.557-1.647-4.649-3.66-4.649H8.46c-2.013,0-3.66,2.092-3.66,4.649v17.899c0,5.172,3.294,9.298,7.32,9.298h61.486
			c4.072,0,7.32-4.184,7.32-9.298V46.747c0-2.557-1.647-4.649-3.66-4.649h-4.895C70.358,42.098,68.711,44.19,68.711,46.747z"/>
		<path fill="none" stroke="#64D7BA" stroke-width="1.6" stroke-miterlimit="10" d="M66.469,16.761
			C66.561,16.761,66.378,16.702,66.469,16.761c4.804,1.511,8.327,7.032,8.327,13.54v11.797h-2.47c-2.013,0-3.66,2.092-3.66,4.649
			v11.681H16.969V46.747c0-2.557-1.647-4.649-3.66-4.649h-2.47V30.301c0.046-7.729,4.986-14.005,11.071-14.005h20.907"/>
		<path fill="none" stroke="#64D7BA" stroke-width="1.6" stroke-miterlimit="10" d="M54.575,48.606h7.503
			c3.66,0,6.633,3.777,6.633,8.426v1.395H17.015v-1.395c0-4.649,2.973-8.426,6.633-8.426l0,0h8.418"/>
		<line fill="none" stroke="#64D7BA" stroke-width="1.6" stroke-miterlimit="10" x1="44.876" y1="48.606" x2="50.457" y2="48.606"/>
		<path fill="none" stroke="#64D7BA" stroke-width="1.6" stroke-miterlimit="10" d="M69.398,31.754v-4.417
			c0-2.789-1.784-4.998-3.935-4.998h-5.352h-0.046h-2.973h-1.647h-0.091"/>
		<path fill="none" stroke="#64D7BA" stroke-width="1.6" stroke-miterlimit="10" d="M43.504,22.339L43.504,22.339H20.263
			c-2.196,0-3.935,2.266-3.935,4.998v4.358"/>
	</g>
	<g>
		<path fill="none" stroke="#64D7BA" stroke-width="1.6" stroke-miterlimit="10" d="M32.478,49.652
			c-0.091-0.174-0.183-0.291-0.229-0.465h0.046C32.341,49.362,32.432,49.478,32.478,49.652z"/>
		<path fill="none" stroke="#64D7BA" stroke-width="1.6" stroke-miterlimit="10" d="M42.909,15.598
			c-0.046,0.232-0.091,0.465-0.137,0.697c-0.046,0.174-0.046,0.407-0.046,0.639c0-0.232,0-0.465,0-0.639s0-0.291,0.046-0.407
			C42.817,15.831,42.863,15.714,42.909,15.598z"/>
		<path fill="none" stroke="#64D7BA" stroke-width="1.6" stroke-miterlimit="10" d="M44.327,23.792
			c-0.366-0.349-0.641-0.814-0.823-1.395C43.732,22.921,44.007,23.385,44.327,23.792z"/>
		<path fill="none" stroke="#64D7BA" stroke-width="1.6" stroke-miterlimit="10" d="M33.073,37.972
			c-0.183,0.232-0.366,0.523-0.549,0.872C32.707,38.437,32.889,38.146,33.073,37.972z"/>
		<path fill="none" stroke="#64D7BA" stroke-width="1.6" stroke-miterlimit="10" d="M44.739,53.139l-8.19,0.291
			c0,0-0.183-0.058-0.503-0.232h0.823l0,0L44.739,53.139L44.739,53.139z"/>
		<path fill="none" stroke="#64D7BA" stroke-width="1.6" stroke-miterlimit="10" d="M48.718,45.178
			c-0.823,0.174-1.693,0.465-2.059,0.755c-0.457,0.407-1.098,1.802-1.51,2.731c-0.183,0.465-0.366,0.814-0.366,0.814
			s0.457,0.349,1.006,0.872c-0.366-0.291-0.778-0.581-1.281-0.872c0,0,0.183-0.291,0.366-0.814c0.046-0.116,0.137-0.291,0.183-0.465
			l0,0c0.686-1.337,1.418-2.15,1.922-2.557c0.32-0.291,0.732-0.465,1.144-0.407C48.353,45.178,48.536,45.178,48.718,45.178z"/>
		<path fill="none" stroke="#64D7BA" stroke-width="1.6" stroke-miterlimit="10" d="M47.438,53.081L47.438,53.081
			c-0.091-0.291-0.229-1.162-1.006-2.092C47.026,51.628,47.53,52.384,47.438,53.081z"/>
		<path fill="none" stroke="#64D7BA" stroke-width="1.6" stroke-miterlimit="10" d="M55.627,27.395
			c-0.137-0.465-0.183-0.93-0.183-1.395v-2.615L55.627,27.395z"/>
		<path fill="none" stroke="#64D7BA" stroke-width="1.6" stroke-miterlimit="10" d="M57.274,41.4
			c-0.412,0.755-0.869,1.453-1.51,2.092C56.359,42.795,56.862,42.098,57.274,41.4z"/>
		<path fill="none" stroke="#64D7BA" stroke-width="1.6" stroke-miterlimit="10" d="M55.764,49.827
			c-0.366-0.174-0.778-0.349-1.235-0.465l0.046-0.755l0.366-4.242l0.046-0.058l-0.412,4.358l-0.046,0.465
			C54.575,49.071,55.123,49.362,55.764,49.827z"/>
		<path fill="none" stroke="#64D7BA" stroke-width="1.6" stroke-miterlimit="10" d="M58.464,53.081
			c-0.046-0.174-0.137-0.581-0.366-1.046C58.326,52.442,58.417,52.791,58.464,53.081z"/>
		<polygon fill="none" stroke="#64D7BA" stroke-width="1.6" stroke-miterlimit="10" points="50.594,53.255 58.417,53.255 
			50.412,53.314 50.366,48.606 50.457,48.606 		"/>
		<path fill="none" stroke="#64D7BA" stroke-width="1.6" stroke-miterlimit="10" d="M58.372,32.742
			c-0.503-1.627-1.326-2.964-1.967-3.835c-0.32-0.465-0.549-0.93-0.732-1.511c0.183,0.291,2.379,3.487,2.607,4.707
			C58.28,32.277,58.326,32.451,58.372,32.742z"/>
		<path fill="none" stroke="#64D7BA" stroke-width="1.6" stroke-miterlimit="10" d="M58.372,13.622c0,0.697-0.457,1.22-0.96,1.22
			c-0.503,0-0.96-0.581-0.96-1.22s0.457-1.22,0.96-1.22C57.914,12.402,58.372,12.925,58.372,13.622z"/>
		<path fill="none" stroke="#64D7BA" stroke-width="1.6" stroke-miterlimit="10" d="M60.111,22.339
			c-0.457,0.058-0.869,0.116-1.235,0.116c-0.686-0.058-1.281-0.058-1.738-0.116H60.111z"/>
		<path fill="none" stroke="#64D7BA" stroke-width="1.6" stroke-miterlimit="10" d="M50.274,45.12c-0.457,0-1.006,0.058-1.51,0.058
			c-0.183,0-0.366,0-0.594,0c-0.412,0-0.823,0.116-1.144,0.407c-0.503,0.465-1.235,1.22-1.922,2.557l0,0c0,0,0,0.058-0.046,0.058"/>
		<path fill="none" stroke="#64D7BA" stroke-width="1.6" stroke-miterlimit="10" d="M55.444,22.456v0.988V26
			c0,0.465,0.046,0.93,0.183,1.395l0,0v0.058c0.137,0.523,0.412,1.046,0.732,1.511c0.641,0.872,1.464,2.15,1.967,3.835l0,0
			c0.732,2.325,0.869,5.346-1.098,8.659l0,0c-0.412,0.697-0.915,1.395-1.51,2.092c0,0-0.046,0-0.046,0.058
			c-0.229,0.232-0.412,0.465-0.686,0.755l0,0c-0.046,0-0.046,0.058-0.091,0.058"/>
		<path fill="none" stroke="#64D7BA" stroke-width="1.6" stroke-miterlimit="10" d="M50.64,8.102c0,0,0,0.116,0,0.291
			c0,0.988,0.091,4.591,0.137,7.961c0,0.814,0,1.627,0.046,2.383c0,1.569-0.457,2.731-1.053,3.603
			c-1.098,1.627-2.654,2.266-2.654,2.266c-0.275,0.058-0.503,0.116-0.732,0.116c-0.869,0.058-1.556-0.291-2.059-0.93
			c-0.32-0.349-0.594-0.872-0.823-1.395l0,0c0,0,0-0.058-0.046-0.058c-0.641-1.627-0.823-3.777-0.732-5.405
			c0-0.232,0.046-0.407,0.046-0.639c0.046-0.291,0.091-0.523,0.137-0.697c0.046-0.232,0.137-0.465,0.229-0.581
			c0.869-1.569,3.797-5.463,4.62-6.276c0.869-0.814,2.791-0.697,2.791-0.697s5.582-0.174,6.405,0.174
			c0.823,0.291,2.882,3.138,4.117,4.126c0.183,0.116,0.366,0.291,0.594,0.465c1.326,0.872,3.385,1.918,4.849,1.743c0,0,0,0,0.046,0
			c0,0,0.137,0.988-0.046,2.325c-0.183,1.511-0.641,3.487-2.288,4.765c-0.594,0.465-1.419,0.581-2.059,0.639
			c-0.503,0.058-1.19,0.116-1.922,0.232H60.2h-0.046c-0.412,0.058-0.823,0.058-1.19,0.116c-1.098,0.058-2.196,0.116-2.882,0
			c-0.183,0-0.32-0.058-0.503-0.116c-0.046,0-0.046,0-0.091-0.058c-1.464-0.639-1.601-2.964-1.601-2.964"/>
		<path fill="none" stroke="#64D7BA" stroke-width="1.6" stroke-miterlimit="10" d="M36.87,53.139h7.868h2.654c0,0,0,0,0-0.116
			c-0.046-0.291-0.183-1.162-0.96-2.092l-0.046-0.058c-0.137-0.174-0.366-0.407-0.549-0.581l0,0
			c-0.366-0.291-0.778-0.581-1.281-0.872c0,0,0.137-0.291,0.366-0.814c0.046-0.116,0.137-0.291,0.183-0.465l0,0
			c0.778-2.092,1.784-6.334-1.144-9.995"/>
		<path fill="none" stroke="#64D7BA" stroke-width="1.6" stroke-miterlimit="10" d="M47.164,24.606v0.116v1.627
			c0,0-11.986,9.182-13.953,11.39c-0.046,0.058-0.137,0.116-0.183,0.232c-0.183,0.232-0.366,0.523-0.549,0.872c0,0,0,0,0,0.058
			c-1.144,2.208-2.013,6.218-0.503,9.763c0.091,0.174,0.183,0.349,0.275,0.581c0.091,0.174,0.137,0.291,0.229,0.465
			c0,0.058,0.046,0.058,0.091,0.116"/>
		<path fill="none" stroke="#64D7BA" stroke-width="1.6" stroke-miterlimit="10" d="M50.32,42.795l0.137,5.811l0.091,4.649h7.868
			h0.046c0,0,0-0.058-0.046-0.174l0,0c-0.046-0.174-0.137-0.581-0.366-1.046c0,0,0,0,0-0.058c-0.366-0.697-1.006-1.569-2.288-2.208
			h-0.044c-0.366-0.174-0.778-0.349-1.235-0.465l0.046-0.755l0.366-4.242"/>
		<path fill="none" stroke="#64D7BA" stroke-width="1.6" stroke-miterlimit="10" d="M58.372,13.622c0,0.697-0.457,1.22-0.96,1.22
			c-0.503,0-0.96-0.581-0.96-1.22s0.457-1.22,0.96-1.22C57.914,12.402,58.372,12.925,58.372,13.622z"/>
	</g>
</g>
</svg>
