<?xml version="1.0" encoding="utf-8"?>
<!-- Generator: Adobe Illustrator 17.0.0, SVG Export Plug-In . SVG Version: 6.00 Build 0)  -->
<!DOCTYPE svg PUBLIC "-//W3C//DTD SVG 1.1//EN" "http://www.w3.org/Graphics/SVG/1.1/DTD/svg11.dtd">
<svg version="1.1" id="Layer_1" focusable="false" xmlns="http://www.w3.org/2000/svg" xmlns:xlink="http://www.w3.org/1999/xlink"
	 x="0px" y="0px" width="115.5px" height="28.5px" viewBox="0 0 115.5 28.5" enable-background="new 0 0 115.5 28.5"
	 xml:space="preserve">
<path fill="#FFC107" d="M13.302,5.667l-2.544,5.157l-5.691,0.83c-1.021,0.148-1.43,1.406-0.689,2.127l4.117,4.012l-0.974,5.668
	c-0.175,1.024,0.904,1.792,1.807,1.313l5.091-2.676l5.091,2.676c0.904,0.475,1.983-0.288,1.807-1.313l-0.974-5.668l4.117-4.012
	c0.74-0.721,0.331-1.979-0.689-2.127l-5.691-0.83l-2.544-5.157C15.082,4.748,13.762,4.736,13.302,5.667L13.302,5.667z"/>
<path fill="#FFC107" d="M35.35,5.667l-2.544,5.157l-5.691,0.83c-1.021,0.148-1.43,1.406-0.689,2.127l4.117,4.012l-0.974,5.668
	c-0.175,1.024,0.904,1.792,1.807,1.313l5.091-2.676l5.091,2.676c0.904,0.475,1.983-0.288,1.807-1.313l-0.974-5.668l4.117-4.012
	c0.74-0.721,0.331-1.979-0.689-2.127l-5.691-0.83l-2.544-5.157C37.13,4.748,35.809,4.736,35.35,5.667L35.35,5.667z"/>
<path fill="#FFC107" d="M57.398,5.667l-2.544,5.157l-5.691,0.83c-1.021,0.148-1.43,1.406-0.689,2.127l4.117,4.012l-0.974,5.668
	c-0.175,1.024,0.904,1.792,1.807,1.313l5.091-2.676l5.091,2.676c0.904,0.475,1.983-0.288,1.807-1.313l-0.974-5.668l4.117-4.012
	c0.74-0.721,0.331-1.979-0.689-2.127l-5.691-0.83l-2.544-5.157C59.178,4.748,57.857,4.736,57.398,5.667L57.398,5.667z"/>
<path fill="#FFC107" d="M79.445,5.667l-2.544,5.157l-5.691,0.83c-1.021,0.148-1.43,1.406-0.689,2.127l4.117,4.012l-0.974,5.668
	c-0.175,1.024,0.904,1.792,1.807,1.313l5.091-2.676l5.091,2.676c0.904,0.475,1.983-0.288,1.807-1.313l-0.974-5.668l4.117-4.012
	c0.74-0.721,0.331-1.979-0.689-2.127l-5.691-0.83l-2.544-5.157C81.226,4.748,79.905,4.736,79.445,5.667L79.445,5.667z"/>
<path fill="#FFC107" d="M101.493,5.667l-2.544,5.157l-5.691,0.83c-1.021,0.148-1.43,1.406-0.689,2.127l4.117,4.012l-0.974,5.668
	c-0.175,1.024,0.904,1.792,1.807,1.313l5.091-2.676l5.091,2.676c0.904,0.475,1.983-0.288,1.807-1.313l-0.974-5.668l4.117-4.012
	c0.74-0.721,0.331-1.979-0.689-2.127l-5.691-0.83l-2.544-5.157C103.273,4.748,101.953,4.736,101.493,5.667L101.493,5.667z"/>
</svg>
