<?xml version="1.0" encoding="utf-8"?>
<!-- Generator: Adobe Illustrator 17.0.0, SVG Export Plug-In . SVG Version: 6.00 Build 0)  -->
<!DOCTYPE svg PUBLIC "-//W3C//DTD SVG 1.1//EN" "http://www.w3.org/Graphics/SVG/1.1/DTD/svg11.dtd">
<svg version="1.1" id="Layer_1" xmlns="http://www.w3.org/2000/svg" xmlns:xlink="http://www.w3.org/1999/xlink" x="0px" y="0px"
	 width="90.5px" height="77.69px" viewBox="0 0 90.5 77.69" enable-background="new 0 0 90.5 77.69" xml:space="preserve">
<path fill="none" stroke="#64D7BA" stroke-width="2" stroke-linecap="round" stroke-linejoin="round" stroke-miterlimit="10" d="
	M85.667,55.244c-1.887-1.548-4.547-3.628-5.321-4.789c0,0-3.918-5.805,1.355-14.174c7.498-12.965,3.967-26.171-10.546-30.38
	c-9.046-2.903-24.429,5.95-24.091,15.335c0.339,6.676,0,8.708-2.709,11.078s0,3.58,2.709,4.596c0,2.225-0.097,2.806,0.581,3.435
	c-0.726,1.064,0.194,2.225,1.064,2.661c0.097,1.5,0.29,5.273,3.58,5.128c3.144-0.145,7.982-0.532,9.482,5.176
	c0.145,0.677,0.048,1.355-0.242,1.935c-2.08,3.822-9.627,14.222-9.095,22.446"/>
<path fill="none" stroke="#64D7BA" stroke-width="2" stroke-linecap="round" stroke-linejoin="round" stroke-miterlimit="10" d="
	M65.833,9.239c0,0,9.723-0.581,13.835,6.579"/>
<path fill="none" stroke="#64D7BA" stroke-width="2" stroke-linecap="round" stroke-linejoin="round" stroke-miterlimit="10" d="
	M80.685,18.382c0,0,0.581,1.693,0.677,2.709"/>
<path fill="none" stroke="#64D7BA" stroke-width="2" stroke-linecap="round" stroke-linejoin="round" stroke-miterlimit="10" d="
	M45.081,25.252c-3.677-3.048-11.078-6.144-19.544,7.014C16.83,35.652,14.653,37.2,14.653,37.2s0.871,9.191,8.853,9.723
	s7.982,0.532,7.982,0.532l0.194,13.303"/>
<circle fill="none" stroke="#64D7BA" stroke-width="2" stroke-linecap="round" stroke-linejoin="round" stroke-miterlimit="10" cx="33.809" cy="32.653" r="1.548"/>
<path fill="none" stroke="#64D7BA" stroke-width="2" stroke-linecap="round" stroke-linejoin="round" stroke-miterlimit="10" d="
	M15.378,8.175c1.016,1.355,1.596,3.048,1.596,4.838v12.142c0.048,4.451-3.58,8.079-8.079,8.079H5.8"/>
<path fill="none" stroke="#64D7BA" stroke-width="2" stroke-linecap="round" stroke-linejoin="round" stroke-miterlimit="10" d="
	M13.588,23.317c0,4.499-1.79,6.095-6.24,6.095"/>
<path fill="none" stroke="#64D7BA" stroke-width="2" stroke-linecap="round" stroke-linejoin="round" stroke-miterlimit="10" d="
	M15.717,40.587c-0.532-0.048,0.822-2.08,1.887-4.596c-1.79,0.871-1.645,0.774-1.645,0.774"/>
<path fill="none" stroke="#64D7BA" stroke-width="2" stroke-linecap="round" stroke-linejoin="round" stroke-miterlimit="10" d="
	M31.487,57.082c0,0,10.981,0.967,20.656-3.048c1.596,2.08,1.113,4.499,1.113,4.499s-5.95,5.321-21.769,3.725
	C31.681,59.308,31.487,57.082,31.487,57.082z"/>
<path fill="none" stroke="#64D7BA" stroke-width="2" stroke-linecap="round" stroke-linejoin="round" stroke-miterlimit="10" d="
	M30.229,57.566c0,0-6.289,3.144-5.563,12.336C28.778,63.371,32.406,64.822,30.229,57.566z"/>
</svg>
