<?xml version="1.0" encoding="utf-8"?>
<!-- Generator: Adobe Illustrator 17.0.0, SVG Export Plug-In . SVG Version: 6.00 Build 0)  -->
<!DOCTYPE svg PUBLIC "-//W3C//DTD SVG 1.1//EN" "http://www.w3.org/Graphics/SVG/1.1/DTD/svg11.dtd">
<svg version="1.1" id="Layer_1" xmlns="http://www.w3.org/2000/svg" xmlns:xlink="http://www.w3.org/1999/xlink" x="0px" y="0px"
	 width="110.5px" height="123.5px" viewBox="0 0 110.5 123.5" enable-background="new 0 0 110.5 123.5" xml:space="preserve">
<g id="Layer_2" display="none">
	<g display="inline">
		<g>
			<g>
				<path fill="none" stroke="#050505" stroke-width="3.467" stroke-miterlimit="10" d="M1246.664,312.398
					c0-4.641-1.898-9.07-5.273-12.445l-137.109-137.109l0,0c-3.164-3.164-7.805-5.273-12.656-5.273H711.094
					c-20.883,0-37.758,16.875-37.758,37.758v689.344c0,20.883,16.875,37.758,37.758,37.758h497.813
					c20.883,0,37.758-16.875,37.758-37.758V312.398C1246.664,312.609,1246.664,312.398,1246.664,312.398z M1109.555,218.742
					l75.938,75.938h-74.039c-1.055,0-1.898-0.844-1.898-1.898V218.742L1109.555,218.742z M1210.805,884.672
					c0,1.055-0.844,1.898-1.898,1.898H711.094c-1.055,0-1.898-0.844-1.898-1.898V195.328c0-1.055,0.844-1.898,1.898-1.898h362.813
					v99.352c0,20.883,16.875,37.758,37.758,37.758h99.352L1210.805,884.672L1210.805,884.672z"/>
			</g>
		</g>
		<g>
			<g>
				<path fill="none" stroke="#050505" stroke-width="3.467" stroke-miterlimit="10" d="M1118.414,618.68H801.586
					c-9.914,0-17.93,8.016-17.93,17.93c0,9.914,8.016,17.93,17.93,17.93h316.828c9.914,0,17.93-8.016,17.93-17.93
					S1128.328,618.68,1118.414,618.68z"/>
			</g>
		</g>
		<g>
			<g>
				<path fill="none" stroke="#050505" stroke-width="3.467" stroke-miterlimit="10" d="M960,726.68H801.586
					c-9.914,0-17.93,8.016-17.93,17.93s8.016,17.93,17.93,17.93H960c9.914,0,17.93-8.016,17.93-17.93S969.914,726.68,960,726.68z"/>
			</g>
		</g>
	</g>
	<g display="inline">
		<path d="M1044.375,419.766c-2.109,1.266-2.531,4.008-1.266,6.117c9.914,15.398,15.188,33.328,15.188,51.891
			c0,24.469-9.07,43.031-26.789,55.688c-16.031,11.391-39.023,17.297-66.445,17.297s-50.414-5.906-66.445-17.297
			c-17.719-12.445-26.789-31.219-26.789-55.687c0-52.313,41.766-94.922,93.234-94.922c24.469,0,47.461,9.492,64.969,27
			c1.687,1.688,4.43,1.688,6.117,0c1.687-1.688,1.687-4.43,0-6.117c-19.195-18.984-44.508-29.531-71.086-29.531
			c-56.32,0-101.883,46.617-101.883,103.781c0,13.922,2.742,26.367,8.227,37.125c5.063,10.125,12.656,18.773,22.359,25.523
			c17.508,12.234,42.188,18.773,71.508,18.773s54-6.539,71.508-18.773c9.703-6.75,17.297-15.398,22.359-25.523
			c5.484-10.758,8.227-23.203,8.227-37.125c0-20.25-5.695-39.656-16.453-56.531C1049.016,418.922,1046.484,418.289,1044.375,419.766
			z"/>
		<path d="M880.898,387.492c0-8.648-3.375-17.719-9.07-24.891c-6.328-7.805-14.555-12.023-23.203-12.023
			s-16.664,4.219-23.203,12.023c-5.906,7.172-9.07,16.242-9.07,24.891c0,17.719,14.555,32.273,32.273,32.273
			S880.898,405.422,880.898,387.492z M848.625,411.117c-13.078,0-23.625-10.547-23.625-23.625c0-12.867,10.547-28.266,23.625-28.266
			s23.625,15.398,23.625,28.266C872.25,400.57,861.703,411.117,848.625,411.117z"/>
		<path d="M918.445,364.078c17.719,0,32.273-14.555,32.273-32.273c0-8.648-3.375-17.719-9.07-24.891
			c-6.328-7.805-14.555-12.023-23.203-12.023s-16.664,4.219-23.203,12.023c-5.906,7.172-9.07,16.242-9.07,24.891
			C886.172,349.523,900.727,364.078,918.445,364.078z M918.445,303.539c13.078,0,23.625,15.398,23.625,28.266
			c0,13.078-10.547,23.625-23.625,23.625s-23.625-10.547-23.625-23.625C894.82,318.938,905.367,303.539,918.445,303.539z"/>
		<path d="M1104.281,362.813c-6.328-7.805-14.555-12.023-23.203-12.023s-16.664,4.219-23.203,12.023
			c-5.906,7.172-9.07,16.242-9.07,24.891c0,17.719,14.555,32.273,32.273,32.273s32.273-14.555,32.273-32.273
			C1113.352,378.844,1109.977,369.984,1104.281,362.813z M1081.078,411.117c-13.078,0-23.625-10.547-23.625-23.625
			c0-12.867,10.547-28.266,23.625-28.266s23.625,15.398,23.625,28.266C1104.703,400.57,1094.156,411.117,1081.078,411.117z"/>
		<path d="M1011.469,364.078c17.719,0,32.273-14.555,32.273-32.273c0-8.648-3.375-17.719-9.07-24.891
			c-6.328-7.805-14.555-12.023-23.203-12.023s-16.664,4.219-23.203,12.023c-5.906,7.172-9.07,16.242-9.07,24.891
			C979.195,349.523,993.539,364.078,1011.469,364.078z M1011.469,303.539c13.078,0,23.625,15.398,23.625,28.266
			c0,13.078-10.547,23.625-23.625,23.625c-13.078,0-23.625-10.547-23.625-23.625C987.844,318.938,998.391,303.539,1011.469,303.539z
			"/>
		<path d="M950.93,512.789h27.844c2.32,0,4.43-1.898,4.43-4.43v-23.625h23.625c2.32,0,4.43-1.898,4.43-4.43v-27.844
			c0-2.32-1.898-4.43-4.43-4.43h-23.625v-23.625c0-2.32-1.898-4.43-4.43-4.43H950.93c-2.32,0-4.43,1.898-4.43,4.43v23.625h-23.625
			c-2.32,0-4.43,1.898-4.43,4.43v27.844c0,2.32,1.898,4.43,4.43,4.43H946.5v23.625C946.711,510.891,948.609,512.789,950.93,512.789z
			 M927.516,476.086v-19.195h23.625c2.32,0,4.43-1.898,4.43-4.43v-23.625h19.195v23.625c0,2.32,1.898,4.43,4.43,4.43h23.625v19.195
			h-23.625c-2.32,0-4.43,1.898-4.43,4.43v23.625H955.57v-23.625c0-2.32-1.898-4.43-4.43-4.43H927.516z"/>
	</g>
</g>
<g id="Layer_3" display="none">
	<g display="inline">
		<path fill="none" stroke="#050505" stroke-width="3.3569" stroke-miterlimit="10" d="M1370.906,637.031
			c-67.922,6.539-82.898-50.414-118.969-91.758c0,36.492-3.164,68.133,1.266,98.508c2.32,15.398,16.664,30.586,28.688,42.609
			c13.711,13.5,21.516,26.789,19.406,46.617c-1.687,15.188-0.633,30.797-0.844,46.195c-0.844,48.305-8.016,54-59.906,46.195
			c2.531-7.172,3.164-17.508,7.594-19.617c22.992-11.18,17.086-31.641,14.977-48.516c-1.477-12.234-9.703-25.734-18.984-34.383
			c-19.195-17.719-43.031-30.586-61.172-49.359c-24.891-25.945-47.25-54.633-68.555-83.531
			c-7.805-10.758-13.711-17.719-27.211-12.656c-24.68,9.492-49.148,20.25-74.25,28.477c-29.109,9.492-58.43,18.773-88.383,24.469
			c-26.367,5.062-53.578,6.539-80.367,6.328c-16.664-0.211-22.57,6.328-23.203,20.461c-1.898,35.438-3.375,70.875-4.641,106.313
			c-1.477,44.93-33.539,70.453-80.789,61.383c3.375-5.695,5.063-12.445,9.281-14.977c22.781-14.133,27.844-36.914,27.844-60.117
			c-0.211-41.555-2.32-83.32-5.273-124.875c-0.633-8.859-6.328-19.195-12.656-25.734c-31.852-32.695-49.992-70.664-54.422-116.648
			c-2.742-28.266-11.391-55.898-18.773-83.32c-1.477-5.273-9.703-11.391-15.188-12.023c-22.148-2.531-44.719-2.953-67.078-4.219
			c-27.844-1.477-44.93-16.031-47.25-43.664c-0.633-6.117,5.063-14.977,10.336-18.563c8.859-5.695,20.672-6.75,29.953-12.023
			c8.438-4.852,15.188-12.867,22.359-19.828c9.703-9.281,17.297-22.57,28.688-28.055c38.813-18.773,78.68-7.805,105.469,25.734
			c6.328,7.805,13.711,14.766,19.617,22.781c45.352,64.336,111.797,86.273,185.414,90.914c45.141,2.742,90.914-1.688,135.844,1.266
			c86.273,5.906,164.109,26.578,201.234,119.18c10.547,26.156,33.117,47.461,49.992,71.297
			C1350.867,607.289,1360.781,622.266,1370.906,637.031z M651.609,267.68c-1.477,30.797-3.797,61.594-4.008,92.18
			c-0.211,17.086,11.391,20.672,25.523,15.398c26.367-9.914,45.141-27.633,55.688-60.539"/>
		<path fill="none" stroke="#050505" stroke-width="3.3569" stroke-miterlimit="10" d="M1205.109,705.164
			c10.125,9.07,16.242,16.875,15.188,30.586c-1.266,15.398-0.211,30.797-0.633,46.195c-1.688,47.883-9.07,52.102-61.594,42.188
			c2.742-6.75,3.797-12.234,6.961-16.031c28.266-34.383,25.945-60.75-7.805-90.914c-33.117-29.531-66.445-59.063-99.141-89.227
			c-6.961-6.539-11.391-15.82-16.875-23.625"/>
		<path fill="none" stroke="#050505" stroke-width="3.3569" stroke-miterlimit="10" d="M802.43,823.5
			c63.703-48.094,32.906-112.641,39.445-172.547c14.344-0.844,29.953-1.687,43.242-2.32c0,44.297,3.375,88.172-1.055,130.992
			C880.266,816.75,846.516,834.047,802.43,823.5z"/>
		<path fill="none" stroke="#050505" stroke-width="3.3569" stroke-miterlimit="10" d="M700.125,463.008
			c0,0,105.469-6.328,153.563-83.531c0,0,37.758,25.313,242.156,23.414c0,0,16.453,16.664,5.906,37.758
			s-63.703,30.375-68.766,110.32s-138.586,91.547-188.789,86.063C792.094,631.125,698.648,595.688,700.125,463.008z"/>
		<circle fill="none" stroke="#050505" stroke-width="2.4225" stroke-miterlimit="10" cx="907.055" cy="512.156" r="78.891"/>
		<text transform="matrix(1 0 0 1 858.5976 572.6662)" font-family="'Arial-BoldMT'" font-size="169.1561">+</text>
	</g>
</g>
<g id="Layer_4" display="none">
	<g display="inline">
		<g>
			<g>
				<path fill="none" stroke="#050505" stroke-width="3.3569" stroke-miterlimit="10" d="M1315.43,529.453h-35.016V334.125
					c0-5.063-3.586-9.281-8.438-10.547l-220.43-48.938v-89.227c0-5.906-4.852-10.758-10.758-10.758H892.078
					c-5.906,0-10.758,4.852-10.758,10.758v86.695L649.5,323.578c-4.852,1.055-8.438,5.484-8.438,10.547v195.328h-35.016
					c-5.906,0-10.758,4.852-10.758,10.758v45.773c0,5.906,4.852,10.758,10.758,10.758h36.914l55.477,300.164
					c0.844,5.063,5.273,8.859,10.547,8.859h503.508c5.273,0,9.703-3.586,10.547-8.859l55.477-300.164h36.914
					c5.906,0,10.758-4.852,10.758-10.758v-45.773C1326.188,534.305,1321.336,529.453,1315.43,529.453z M902.836,196.172h127.406V270
					l-67.078-14.977c-1.477-0.422-3.164-0.422-4.641,0l-55.688,12.445V196.172L902.836,196.172z M1203.422,884.25H717.844
					l-53.156-287.508h592.102L1203.422,884.25z M1304.672,575.227H616.594v-24.258h489.375c5.906,0,10.758-4.852,10.758-10.758
					c0-5.906-4.851-10.758-10.758-10.758H662.367v-186.68l298.266-66.234l298.266,66.234v186.68h-102.305
					c-5.906,0-10.758,4.852-10.758,10.758s4.851,10.758,10.758,10.758h148.078L1304.672,575.227L1304.672,575.227z"/>
			</g>
		</g>
		<g>
			<g>
				<path fill="none" stroke="#050505" stroke-width="3.3569" stroke-miterlimit="10" d="M977.93,346.359h-34.383
					c-5.906,0-10.758,4.852-10.758,10.758v137.32c0,5.906,4.852,10.758,10.758,10.758h34.383c5.906,0,10.758-4.852,10.758-10.758
					v-137.32C988.477,351.211,983.836,346.359,977.93,346.359z"/>
			</g>
		</g>
		<g>
			<g>
				<path fill="none" stroke="#050505" stroke-width="3.3569" stroke-miterlimit="10" d="M1086.563,346.359h-34.383
					c-5.906,0-10.758,4.852-10.758,10.758v137.32c0,5.906,4.852,10.758,10.758,10.758h34.383c5.906,0,10.758-4.852,10.758-10.758
					v-137.32C1097.32,351.211,1092.469,346.359,1086.563,346.359z"/>
			</g>
		</g>
		<g>
			<g>
				<path fill="none" stroke="#050505" stroke-width="3.3569" stroke-miterlimit="10" d="M1200.891,346.359h-34.172
					c-5.906,0-10.758,4.852-10.758,10.758v137.32c0,5.906,4.852,10.758,10.758,10.758h34.383c5.906,0,10.758-4.852,10.758-10.758
					v-137.32C1211.648,351.211,1207.008,346.359,1200.891,346.359z"/>
			</g>
		</g>
		<g>
			<g>
				<path fill="none" stroke="#050505" stroke-width="3.3569" stroke-miterlimit="10" d="M869.086,346.359h-34.383
					c-5.906,0-10.758,4.852-10.758,10.758v137.32c0,5.906,4.852,10.758,10.758,10.758h34.383c5.906,0,10.758-4.852,10.758-10.758
					v-137.32C879.844,351.211,874.992,346.359,869.086,346.359z"/>
			</g>
		</g>
		<g>
			<g>
				<path fill="none" stroke="#050505" stroke-width="3.3569" stroke-miterlimit="10" d="M754.758,346.359h-34.383
					c-5.906,0-10.758,4.852-10.758,10.758v137.32c0,5.906,4.852,10.758,10.758,10.758h34.383c5.906,0,10.758-4.852,10.758-10.758
					v-137.32C765.516,351.211,760.664,346.359,754.758,346.359z"/>
			</g>
		</g>
		<g>
			<g>
				<path fill="none" stroke="#050505" stroke-width="3.3569" stroke-miterlimit="10" d="M960.633,701.156
					c-48.516,0-87.961,39.445-87.961,87.961c0,44.297,32.906,70.875,87.961,70.875s87.961-26.367,87.961-70.875
					C1048.594,740.602,1009.148,701.156,960.633,701.156z"/>
			</g>
		</g>
		<g>
			<g>
				<path fill="none" stroke="#050505" stroke-width="3.3569" stroke-miterlimit="10" d="M917.813,615.305
					c-21.938,0-36.492,27.211-36.492,45.141c0,20.039,16.453,36.492,36.492,36.492s36.492-16.453,36.492-36.492
					C954.305,642.516,939.75,615.305,917.813,615.305z"/>
			</g>
		</g>
		<g>
			<g>
				<path fill="none" stroke="#050505" stroke-width="3.3569" stroke-miterlimit="10" d="M1003.664,615.305
					c-21.937,0-36.492,27.211-36.492,45.141c0,20.039,16.453,36.492,36.492,36.492s36.492-16.453,36.492-36.492
					C1040.156,642.516,1025.602,615.305,1003.664,615.305z"/>
			</g>
		</g>
		<g>
			<g>
				<path fill="none" stroke="#050505" stroke-width="3.3569" stroke-miterlimit="10" d="M1072.219,666.773
					c-21.938,0-36.492,27.211-36.492,45.141c0,20.039,16.453,36.492,36.492,36.492s36.492-16.453,36.492-36.492
					C1108.711,693.984,1094.156,666.773,1072.219,666.773z"/>
			</g>
		</g>
		<g>
			<g>
				<path fill="none" stroke="#050505" stroke-width="3.3569" stroke-miterlimit="10" d="M849.047,666.773
					c-21.938,0-36.492,27.211-36.492,45.141c0,20.039,16.453,36.492,36.492,36.492s36.492-16.453,36.492-36.492
					C885.539,693.984,870.984,666.773,849.047,666.773z"/>
			</g>
		</g>
	</g>
	<polyline display="inline" fill="none" stroke="#000000" stroke-width="4.8553" stroke-miterlimit="10" points="916.969,788.695 
		941.648,811.266 1003.031,754.523 	"/>
</g>
<g id="Layer_5" display="none">
	<g display="inline">
		<g>
			<g>
				<path fill="none" stroke="#050505" stroke-width="3.467" stroke-miterlimit="10" d="M1246.664,312.398
					c0-4.641-1.898-9.07-5.273-12.445l-137.109-137.109l0,0c-3.164-3.164-7.805-5.273-12.656-5.273H711.094
					c-20.883,0-37.758,16.875-37.758,37.758v689.344c0,20.883,16.875,37.758,37.758,37.758h497.813
					c20.883,0,37.758-16.875,37.758-37.758V312.398C1246.664,312.609,1246.664,312.398,1246.664,312.398z M1109.555,218.742
					l75.938,75.938h-74.039c-1.055,0-1.898-0.844-1.898-1.898V218.742L1109.555,218.742z M1210.805,884.672
					c0,1.055-0.844,1.898-1.898,1.898H711.094c-1.055,0-1.898-0.844-1.898-1.898V195.328c0-1.055,0.844-1.898,1.898-1.898h362.813
					v99.352c0,20.883,16.875,37.758,37.758,37.758h99.352L1210.805,884.672L1210.805,884.672z"/>
			</g>
		</g>
		<g>
			<g>
				<path fill="none" stroke="#050505" stroke-width="3.467" stroke-miterlimit="10" d="M1117.148,753.891H800.109
					c-9.914,0-17.93,8.016-17.93,17.93c0,9.914,8.016,17.93,17.93,17.93h316.828c9.914,0,17.93-8.016,17.93-17.93
					S1126.852,753.891,1117.148,753.891z"/>
			</g>
		</g>
		<g>
			<g>
				<path fill="none" stroke="#050505" stroke-width="3.467" stroke-miterlimit="10" d="M1117.148,651.164H800.109
					c-9.914,0-17.93,8.016-17.93,17.93c0,9.914,8.016,17.93,17.93,17.93h316.828c9.914,0,17.93-8.016,17.93-17.93
					C1134.867,659.18,1126.852,651.164,1117.148,651.164z"/>
			</g>
		</g>
	</g>
	<g display="inline">
		<path d="M1044.375,440.859c-2.109,1.266-2.531,4.008-1.266,6.117c9.914,15.398,15.188,33.328,15.188,51.891
			c0,24.469-9.07,43.031-26.789,55.688c-16.031,11.391-39.023,17.297-66.445,17.297s-50.414-5.906-66.445-17.297
			c-17.719-12.445-26.789-31.219-26.789-55.688c0-52.313,41.766-94.922,93.234-94.922c24.469,0,47.461,9.492,64.969,27
			c1.687,1.688,4.43,1.688,6.117,0c1.687-1.688,1.687-4.43,0-6.117c-19.195-18.984-44.508-29.531-71.086-29.531
			c-56.32,0-101.883,46.617-101.883,103.781c0,13.922,2.742,26.367,8.227,37.125c5.063,10.125,12.656,18.773,22.359,25.523
			c17.508,12.234,42.188,18.773,71.508,18.773s54-6.539,71.508-18.773c9.703-6.75,17.297-15.398,22.359-25.523
			c5.484-10.758,8.227-23.203,8.227-37.125c0-20.25-5.695-39.656-16.453-56.531C1049.016,440.016,1046.484,439.383,1044.375,440.859
			z"/>
		<path d="M880.898,408.586c0-8.648-3.375-17.719-9.07-24.891c-6.328-7.805-14.555-12.023-23.203-12.023
			s-16.664,4.219-23.203,12.023c-5.906,7.172-9.07,16.242-9.07,24.891c0,17.719,14.555,32.273,32.273,32.273
			S880.898,426.516,880.898,408.586z M848.625,432.211c-13.078,0-23.625-10.547-23.625-23.625c0-12.867,10.547-28.266,23.625-28.266
			s23.625,15.398,23.625,28.266C872.25,421.664,861.703,432.211,848.625,432.211z"/>
		<path d="M918.445,385.172c17.719,0,32.273-14.555,32.273-32.273c0-8.648-3.375-17.719-9.07-24.891
			c-6.328-7.805-14.555-12.023-23.203-12.023s-16.664,4.219-23.203,12.023c-5.906,7.172-9.07,16.242-9.07,24.891
			C886.172,370.617,900.727,385.172,918.445,385.172z M918.445,324.633c13.078,0,23.625,15.398,23.625,28.266
			c0,13.078-10.547,23.625-23.625,23.625s-23.625-10.547-23.625-23.625C894.82,340.031,905.367,324.633,918.445,324.633z"/>
		<path d="M1104.281,383.906c-6.328-7.805-14.555-12.023-23.203-12.023s-16.664,4.219-23.203,12.023
			c-5.906,7.172-9.07,16.242-9.07,24.891c0,17.719,14.555,32.273,32.273,32.273s32.273-14.555,32.273-32.273
			C1113.352,399.938,1109.977,391.078,1104.281,383.906z M1081.078,432.211c-13.078,0-23.625-10.547-23.625-23.625
			c0-12.867,10.547-28.266,23.625-28.266s23.625,15.398,23.625,28.266C1104.703,421.664,1094.156,432.211,1081.078,432.211z"/>
		<path d="M1011.469,385.172c17.719,0,32.273-14.555,32.273-32.273c0-8.648-3.375-17.719-9.07-24.891
			c-6.328-7.805-14.555-12.023-23.203-12.023s-16.664,4.219-23.203,12.023c-5.906,7.172-9.07,16.242-9.07,24.891
			C979.195,370.617,993.539,385.172,1011.469,385.172z M1011.469,324.633c13.078,0,23.625,15.398,23.625,28.266
			c0,13.078-10.547,23.625-23.625,23.625c-13.078,0-23.625-10.547-23.625-23.625C987.844,340.031,998.391,324.633,1011.469,324.633z
			"/>
		<path d="M950.93,533.883h27.844c2.32,0,4.43-1.898,4.43-4.43v-23.625h23.625c2.32,0,4.43-1.898,4.43-4.43v-27.844
			c0-2.32-1.898-4.43-4.43-4.43h-23.625V445.5c0-2.32-1.898-4.43-4.43-4.43H950.93c-2.32,0-4.43,1.898-4.43,4.43v23.625h-23.625
			c-2.32,0-4.43,1.898-4.43,4.43v27.844c0,2.32,1.898,4.43,4.43,4.43H946.5v23.625C946.711,531.984,948.609,533.883,950.93,533.883z
			 M927.516,497.18v-19.195h23.625c2.32,0,4.43-1.898,4.43-4.43V449.93h19.195v23.625c0,2.32,1.898,4.43,4.43,4.43h23.625v19.195
			h-23.625c-2.32,0-4.43,1.898-4.43,4.43v23.625H955.57v-23.625c0-2.32-1.898-4.43-4.43-4.43H927.516z"/>
	</g>
</g>
<g id="Layer_6" display="none">
	<g display="inline">
		<path d="M1159.125,442.547c-7.594,0-13.5,6.117-13.5,13.5c0,7.594,6.117,13.5,13.5,13.5c7.594,0,13.5-6.117,13.5-13.5
			C1172.836,448.664,1166.719,442.547,1159.125,442.547L1159.125,442.547z"/>
		<g>
			<g>
				<defs>
					<rect id="SVGID_1_" x="612.586" y="252.281" width="696.094" height="625.43"/>
				</defs>
				<clipPath id="SVGID_2_">
					<use xlink:href="#SVGID_1_"  overflow="visible"/>
				</clipPath>
				<path clip-path="url(#SVGID_2_)" fill="none" stroke="#050505" stroke-width="3.467" stroke-miterlimit="10" d="
					M888.703,410.484l17.508-17.508l17.508,17.508c5.273,5.273,13.922,5.273,19.195,0l17.508-17.508l17.508,17.508
					c5.273,5.273,13.922,5.273,19.195,0l17.508-17.508l17.508,17.508c5.273,5.273,13.922,5.273,19.195,0s5.273-13.922,0-19.195
					l-27.211-27.211c-5.273-5.273-13.922-5.273-19.195,0l-17.508,17.508l-17.508-17.508c-5.273-5.273-13.922-5.273-19.195,0
					l-17.508,17.508l-17.508-17.508c-5.273-5.273-13.922-5.273-19.195,0l-27.211,27.211c-5.273,5.273-5.273,13.922,0,19.195
					C874.781,415.758,883.43,415.758,888.703,410.484L888.703,410.484z"/>
			</g>
			<g>
				<defs>
					<rect id="SVGID_3_" x="612.586" y="252.281" width="696.094" height="625.43"/>
				</defs>
				<clipPath id="SVGID_4_">
					<use xlink:href="#SVGID_3_"  overflow="visible"/>
				</clipPath>
				<path clip-path="url(#SVGID_4_)" fill="none" stroke="#050505" stroke-width="3.467" stroke-miterlimit="10" d="
					M1295.18,252.281H626.297c-7.594,0-13.5,6.117-13.5,13.5v516.586c0,7.594,6.117,13.5,13.5,13.5h348.047v67.078
					c0,5.484,3.375,10.547,8.438,12.656c5.062,2.109,10.969,0.844,14.766-2.953l44.719-44.719l44.719,44.719
					c3.797,3.797,9.703,5.063,14.766,2.953s8.438-6.961,8.438-12.656v-67.078h184.992c7.594,0,13.5-6.117,13.5-13.5V265.781
					C1308.68,258.398,1302.563,252.281,1295.18,252.281L1295.18,252.281z M960.633,605.813c0-44.93,36.492-81.633,81.633-81.633
					c45.141,0,81.633,36.492,81.633,81.633c0,44.719-36.492,81.633-81.633,81.633C997.125,687.234,960.633,650.531,960.633,605.813
					L960.633,605.813z M1110.188,690.609c25.734-20.672,40.711-51.891,40.711-84.797c0-59.906-48.727-108.844-108.844-108.844
					s-108.844,48.727-108.844,108.844c0,33.117,15.187,64.125,40.711,84.797v23.836h-240.68
					c-4.852-18.984-20.039-34.172-39.023-39.023V372.938c18.984-4.852,34.172-20.039,39.023-39.023h454.781
					c4.852,18.984,20.039,34.172,39.023,39.023v302.484c-18.984,4.852-34.172,20.039-39.023,39.023h-77.836V690.609z
					 M1082.977,830.25l-31.219-31.219c-5.273-5.273-13.922-5.273-19.195,0l-31.219,31.219V706.641
					c12.867,5.273,26.578,8.016,40.711,8.016s27.844-2.742,40.711-8.016V830.25H1082.977z M1281.469,768.867h-171.281v-27.211
					h89.648c7.594,0,13.5-6.117,13.5-13.5c0-14.977,12.234-27.211,27.211-27.211c7.594,0,13.5-6.117,13.5-13.5V360.914
					c0-7.594-6.117-13.5-13.5-13.5c-14.977,0-27.211-12.234-27.211-27.211c0-7.594-6.117-13.5-13.5-13.5H721.43
					c-7.594,0-13.5,6.117-13.5,13.5c0,14.977-12.234,27.211-27.211,27.211c-7.594,0-13.5,6.117-13.5,13.5v326.32
					c0,7.594,6.117,13.5,13.5,13.5c14.977,0,27.211,12.234,27.211,27.211c0,7.594,6.117,13.5,13.5,13.5h252.914v27.211H639.797
					V279.281h641.672V768.867L1281.469,768.867z"/>
			</g>
		</g>
		<path fill="none" stroke="#050505" stroke-width="3.467" stroke-miterlimit="10" d="M1096.688,605.813
			c0-29.953-24.469-54.422-54.422-54.422s-54.422,24.469-54.422,54.422c0,29.953,24.469,54.422,54.422,54.422
			C1072.219,660.023,1096.688,635.766,1096.688,605.813L1096.688,605.813z M1015.055,605.813c0-14.977,12.234-27.211,27.211-27.211
			s27.211,12.234,27.211,27.211c0,14.977-12.234,27-27.211,27S1015.055,620.789,1015.055,605.813L1015.055,605.813z"/>
		<path fill="none" stroke="#050505" stroke-width="3.467" stroke-miterlimit="10" d="M1104.703,442.547H762.141
			c-7.594,0-13.5,6.117-13.5,13.5c0,7.594,6.117,13.5,13.5,13.5h342.563c7.594,0,13.5-6.117,13.5-13.5
			C1118.414,448.664,1112.297,442.547,1104.703,442.547L1104.703,442.547z"/>
		<path fill="none" stroke="#050505" stroke-width="3.467" stroke-miterlimit="10" d="M879.211,524.18H762.352
			c-7.594,0-13.5,6.117-13.5,13.5c0,7.594,6.117,13.5,13.5,13.5h116.859c7.594,0,13.5-6.117,13.5-13.5
			C892.711,530.297,886.594,524.18,879.211,524.18L879.211,524.18z"/>
		<path fill="none" stroke="#050505" stroke-width="3.467" stroke-miterlimit="10" d="M879.211,605.813H762.352
			c-7.594,0-13.5,6.117-13.5,13.5s6.117,13.5,13.5,13.5h116.859c7.594,0,13.5-6.117,13.5-13.5S886.594,605.813,879.211,605.813
			L879.211,605.813z"/>
	</g>
</g>
<g id="Layer_7" display="none">
	<g display="inline">
		<g>
			<path fill="none" stroke="#050505" stroke-width="3.467" stroke-miterlimit="10" d="M696.961,812.531V323.789
				c0-22.359,18.352-40.711,40.711-40.711h407.109c22.359,0,40.711,18.352,40.711,40.711v239.414l40.711-40.711V323.789
				c0-44.93-36.492-81.422-81.422-81.422H737.672c-44.93,0-81.422,36.492-81.422,81.422V812.32c0,44.93,36.492,81.422,81.422,81.422
				h224.016v-40.711H737.672C715.313,853.242,696.961,834.891,696.961,812.531L696.961,812.531z M1104.281,364.5H778.383v40.711
				h325.688V364.5H1104.281z M1104.281,445.922H778.383v40.711h325.688v-40.711H1104.281z M1104.281,527.344H778.383v40.711h325.688
				v-40.711H1104.281z M778.383,649.688h162.844v-40.711H778.383V649.688z M1295.813,608.977l-28.688-28.898
				c-8.016-8.016-18.352-12.023-28.688-12.023s-20.883,4.008-28.898,12.023l-174.867,174.867
				c-8.016,8.016-32.273,38.602-32.273,49.148l-20.25,89.859l89.859-20.25c0,0,41.133-24.258,49.148-32.273l174.867-174.867
				C1311.844,650.531,1311.844,624.797,1295.813,608.977L1295.813,608.977z M1106.602,826.875
				c-2.32,2.109-10.336,7.594-20.039,13.711l-52.734-52.734c5.484-7.383,11.391-14.766,15.188-18.563l131.625-131.625l57.586,57.586
				L1106.602,826.875z"/>
		</g>
	</g>
</g>
<g id="Layer_8">
	<g>
		<path fill="none" stroke="#050505" stroke-width="2" stroke-miterlimit="10" d="M25.287,57.05
			c-0.855,0.214-1.373,1.099-1.16,1.953c3.51,13.55,15.747,23.041,29.785,23.041c16.968,0,30.762-13.794,30.762-30.762
			S70.881,20.52,53.913,20.52c-17.304,0-31.342,14.374-30.762,31.83c0.031,0.885,0.763,1.587,1.648,1.556
			c0.885-0.031,1.587-0.763,1.556-1.648C25.806,36.603,38.41,23.724,53.913,23.724c15.198,0,27.558,12.36,27.558,27.558
			S69.111,78.84,53.913,78.84c-12.573,0-23.529-8.484-26.703-20.63C27.027,57.355,26.142,56.836,25.287,57.05L25.287,57.05z"/>
		<g>
			<path fill="none" stroke="#050505" stroke-width="2" stroke-miterlimit="10" d="M43.476,66.266c0,0.641-0.519,1.16-1.16,1.16
				h-5.402c-0.397,0-0.702-0.336-0.702-0.702V47.315c0-0.397,0.336-0.702,0.702-0.702h5.402c0.641,0,1.16,0.519,1.16,1.16V66.266z
				 M71.674,51.343v10.498c0,3.571-2.899,6.5-6.5,6.5H49.03c-1.19,0-2.167-0.977-2.167-2.167V48.413c0-1.19,0.977-2.167,2.167-2.167
				h3.51c0.854,0,1.648-0.366,2.197-1.038l8.27-10.01c1.434-1.77,4.242-1.038,4.547,1.19c0.214,1.617-0.793,2.136-3.235,5.219
				c-1.495,1.862-0.153,4.608,2.228,4.608C69.385,46.247,71.674,48.535,71.674,51.343L71.674,51.343z"/>
			<path fill="none" stroke="#050505" stroke-width="2" stroke-miterlimit="10" d="M89.985,74.872
				c7.324-2.472,9.949-12.36,3.662-18.036c-3.296-2.991-3.265-8.148,0-11.109c2.289-2.075,3.54-4.852,3.54-7.843
				c0-5.92-4.822-11.109-11.261-10.742c-3.082,0.153-5.951-1.617-7.202-4.425c-0.366-0.793-1.312-1.16-2.106-0.793
				c-0.793,0.366-1.16,1.312-0.793,2.106c1.801,3.998,5.89,6.531,10.285,6.287c7.019-0.427,10.651,8.301,5.402,13.031
				c-4.7,4.242-4.7,11.627,0,15.869c4.639,4.181,2.319,11.505-3.113,12.818c-1.495,0.366-2.289,0.122-3.54,0.214
				c-5.646,0.366-10.223,5.188-9.949,11.2c0.305,7.202-8.392,10.529-13.031,5.402c-4.211-4.669-11.597-4.73-15.869,0
				c-4.669,5.158-13.336,1.801-13.031-5.402c0.275-6.134-4.15-11.2-11.658-11.2c-6.836,0-10.04-8.453-4.974-13.031
				c4.7-4.242,4.7-11.627,0-15.869c-5.249-4.73-1.617-13.428,5.402-13.031c6.134,0.305,11.231-4.578,11.231-10.651
				c0-0.397-0.031-0.61-0.031-0.977c0-4.669,3.845-7.446,7.568-7.446c1.465,0,3.601,0.427,5.463,2.502
				c4.242,4.7,11.627,4.7,15.869,0c4.334-4.822,11.933-2.136,12.94,3.662c0.153,0.885,0.977,1.465,1.831,1.312
				c0.885-0.153,1.465-0.977,1.312-1.831c-1.465-8.576-12.39-11.963-18.463-5.249c-2.96,3.296-8.148,3.296-11.109,0
				c-4.273-4.7-11.078-4.517-15.259-0.641c-2.38,2.136-3.479,5.158-3.326,8.24c0.214,4.456-3.418,8.087-7.843,7.843
				c-3.174-0.183-6.195,1.007-8.331,3.326C9.692,34.619,9.54,41.455,14.24,45.667c3.265,2.96,3.296,8.118,0,11.109
				c-2.289,2.075-3.54,4.852-3.54,7.843c0,4.456,2.808,8.728,7.202,10.193L4.474,98.554c-1.465,2.594,0.671,5.737,3.601,5.341
				c13.092-1.617,13.062-1.984,13.306-1.465l5.188,11.933c1.19,2.747,4.974,2.899,6.439,0.336l12.024-21.24
				c1.251-0.61,2.411-1.465,3.387-2.533c2.96-3.296,8.148-3.296,11.109,0c0.977,1.099,2.136,1.953,3.387,2.533l5.768,10.193
				c0.427,0.763,1.404,1.038,2.167,0.61c0.763-0.427,1.038-1.404,0.61-2.167l-4.303-7.599c5.31,0.305,10.986-4.12,10.986-10.651
				c0-0.427-0.031-0.671-0.031-0.977c0-4.12,3.357-7.477,7.477-7.477c0.214,0,0.885,0.031,1.099,0.031
				c14.893,26.367,14.069,24.781,14.069,24.964c0,0.183-0.153,0.427-0.458,0.397c-13.458-1.77-12.909-1.74-13.367-1.74
				c-1.434,0-2.716,0.854-3.296,2.167c-5.463,12.146-5.005,12.177-5.554,12.177c-0.427,0-0.122,0.061-3.449-5.707
				c-0.427-0.763-1.404-1.038-2.167-0.61c-0.763,0.427-1.038,1.404-0.61,2.167l3.113,5.493c1.465,2.594,5.249,2.35,6.439-0.336
				c5.371-11.994,5.035-12.238,5.615-12.146c13.55,1.77,12.94,1.74,13.367,1.74c1.984,0,3.601-1.617,3.601-3.601
				C103.901,98.737,104.115,100.172,89.985,74.872L89.985,74.872z M29.834,113.386c-0.488-0.031-0.061,0.153-5.524-12.177
				c-0.61-1.404-2.106-2.35-3.784-2.136c-13.214,1.617-13.001,1.953-13.275,1.526c-0.305-0.427-0.549,0.793,13.977-25.208
				c6.256,0.397,8.759,3.662,8.545,7.843c-0.153,3.082,0.946,6.134,3.326,8.331c2.228,2.045,5.31,3.052,7.629,2.899
				C29.59,113.996,30.353,113.417,29.834,113.386L29.834,113.386z"/>
		</g>
	</g>
</g>
<g id="Layer_9" display="none">
	<g display="inline">
		<path fill="none" stroke="#050505" stroke-width="3.467" stroke-miterlimit="10" d="M767.836,436.641
			c-4.852,4.852-4.852,13.078,0,17.93s13.078,4.852,17.93,0s4.852-12.867,0-17.93C780.914,431.789,772.898,431.789,767.836,436.641z
			"/>
		<path fill="none" stroke="#050505" stroke-width="3.467" stroke-miterlimit="10" d="M957.469,783
			c5.484-7.594,8.648-16.664,8.648-26.367c0-24.469-19.828-44.297-44.297-44.297H706.242c-11.813,0-22.992,4.641-31.43,13.078
			s-13.078,19.617-13.078,31.43c0,9.914,3.164,18.984,8.648,26.156c-20.25,10.547-33.961,31.852-33.961,56.109v12.656
			c0,6.961,5.695,12.656,12.656,12.656h329.484c6.961,0,12.656-5.695,12.656-12.656v-12.656
			C991.43,814.852,977.508,793.758,957.469,783z M692.742,743.344c3.586-3.586,8.438-5.484,13.5-5.484h215.367
			c10.547,0,18.984,8.438,18.984,18.984c0,5.062-1.898,9.914-5.484,13.5c-3.586,3.586-8.438,5.484-13.5,5.484H706.242
			c-10.547,0-18.984-8.438-18.984-18.984C687.258,751.781,689.156,746.93,692.742,743.344z M661.945,839.109
			c0-20.883,17.086-37.969,37.969-37.969h6.328h215.367h6.328c20.883,0,37.969,17.086,37.969,37.969H661.945z"/>
		<path fill="none" stroke="#050505" stroke-width="3.467" stroke-miterlimit="10" d="M1273.664,748.195
			c-4.219-6.75-9.492-12.656-15.188-17.508l-59.273-51.68c-0.422-0.633-1.055-1.266-1.688-1.898
			c-1.055-1.055-2.109-1.898-3.375-2.531l-35.859-31.219L992.484,498.867c6.75-7.172,10.547-16.453,10.547-26.156
			c0-10.125-4.008-19.617-11.18-27c-3.164-3.164-6.75-5.695-10.547-7.383l15.398-15.398c4.219,1.055,8.648,1.688,13.078,1.688
			c13.078,0,25.945-4.852,35.859-14.766c9.492-9.492,14.766-22.359,14.766-35.859c0-13.5-5.273-26.367-14.766-35.859
			L938.063,230.555c-9.492-9.492-22.359-14.766-35.859-14.766s-26.367,5.273-35.859,14.766
			c-13.289,13.289-17.508,32.063-13.078,48.938l-152.93,152.93c-4.219-1.055-8.648-1.688-13.078-1.688
			c-13.5,0-26.367,5.273-35.859,14.766c-19.828,19.828-19.828,51.891,0,71.719l107.578,107.578
			c9.914,9.914,22.781,14.766,35.859,14.766s25.945-4.852,35.859-14.766c13.289-13.289,17.508-32.063,13.078-48.938l15.398-15.398
			c1.898,3.797,4.43,7.383,7.383,10.547c7.172,7.172,16.664,11.18,26.789,11.18c9.914,0,19.195-3.797,26.156-10.547l176.555,202.922
			c0.422,0.844,1.055,1.477,1.688,2.109c0.211,0.211,0.422,0.422,0.633,0.633l52.523,60.539c1.266,1.477,2.742,3.164,4.219,4.43
			c14.344,14.344,33.539,22.359,53.578,22.359c3.586,0,7.172-0.211,10.758-0.633c23.836-3.375,44.508-17.508,56.531-39.234
			C1289.273,800.93,1288.43,770.977,1273.664,748.195z M1090.781,729.844l59.695-59.695l19.195,16.664l-62.227,62.227
			L1090.781,729.844z M937.641,553.711l37.125-37.125l156.727,136.688l-57.164,57.164L937.641,553.711z M884.484,248.484
			c4.852-4.852,11.18-7.383,17.93-7.383s13.078,2.742,17.93,7.383l107.578,107.578c4.852,4.852,7.383,11.18,7.383,17.93
			s-2.742,13.078-7.383,17.93c-9.914,9.914-25.945,9.914-35.859,0L884.484,284.344l0,0
			C874.57,274.43,874.57,258.398,884.484,248.484z M812.766,606.867c-9.914,9.914-25.945,9.914-35.859,0L669.328,499.289
			c-9.914-9.914-9.914-25.945,0-35.859c4.852-4.852,11.18-7.383,17.93-7.383s13.078,2.531,17.93,7.383l107.578,107.578
			C822.68,580.922,822.68,596.953,812.766,606.867z M723.117,445.5l143.438-143.438l107.578,107.578l-35.438,35.438
			c-0.211,0.211-0.211,0.211-0.422,0.422l-71.719,71.719c-0.211,0.211-0.211,0.211-0.422,0.422l-35.438,35.437L723.117,445.5z
			 M893.344,556.875c-3.375,0-6.539-1.266-8.859-3.797c-2.32-2.32-3.797-5.484-3.797-9.07c0-3.375,1.266-6.539,3.586-8.859
			l71.93-71.93c4.852-4.852,12.867-4.641,17.719,0.211c2.32,2.32,3.797,5.484,3.797,9.07c0,3.375-1.266,6.539-3.797,8.859
			l-8.859,8.859l-0.211,0.211l-53.578,53.789l0,0l-8.859,8.859C899.883,555.609,896.719,556.875,893.344,556.875z M1254.047,812.32
			c-8.227,14.555-21.938,24.258-37.969,26.367c-15.82,2.109-31.43-2.953-42.82-14.344c-1.055-1.055-1.898-1.898-2.742-2.953
			c0,0,0,0-0.211-0.211l-46.195-52.945l64.547-64.547l52.945,46.195c0,0,0,0,0.211,0c4.008,3.375,7.383,7.383,10.547,12.023
			C1261.852,776.672,1262.484,796.922,1254.047,812.32z"/>
		<path fill="none" stroke="#050505" stroke-width="3.467" stroke-miterlimit="10" d="M875.414,346.992
			c-4.852-4.852-12.867-4.852-17.93,0l-53.789,53.789c-4.852,4.852-4.852,12.867,0,17.93c2.531,2.531,5.695,3.797,8.859,3.797
			s6.539-1.266,8.859-3.797l53.789-53.789C880.477,360.07,880.477,352.055,875.414,346.992z"/>
	</g>
</g>
<g id="Layer_11" display="none">
	<g display="inline">
		<g>
			<g>
				<path fill="none" stroke="#050505" stroke-width="3.467" stroke-miterlimit="10" d="M884.273,469.547
					c6.961,2.32,22.57,4.852,35.227-11.391c-2.32-21.938-9.07-26.578-9.07-26.578c-3.375-3.586-6.961-6.117-10.758-7.594
					c-4.641,6.961-17.719,27.844-16.664,43.664C882.797,468.281,883.641,469.336,884.273,469.547L884.273,469.547z"/>
				<path fill="none" stroke="#050505" stroke-width="3.467" stroke-miterlimit="10" d="M834.281,441.703
					c-2.531,0.633-4.641,3.164-4.43,5.906c1.477,23.414,22.992,29.109,32.906,30.586c2.531,0.422,4.852,2.531,5.063,5.062
					l1.688,17.086c2.109-0.422,4.219-0.844,6.539-1.055c1.477-1.477,4.43-4.852,4.641-9.914c0-1.898,1.055-3.797,2.531-4.852
					c1.266-1.055,2.953-1.266,4.43-0.844c5.063,1.266,11.18,6.75,11.813,25.523c3.164,2.109,9.492,7.172,13.922,16.242
					c2.32,4.852,4.43,11.18,4.852,19.195c11.391-7.805,20.672-18.773,26.578-31.43l-2.953-5.906c0,0-21.516-16.031-21.727-33.117
					c0-3.375,0-6.328-0.211-9.07c-8.438,8.859-17.93,11.18-25.313,11.18c-5.273,0-9.492-1.055-11.813-1.898
					c-2.531-0.844-4.43-3.586-4.641-6.117c-1.055-16.453,11.18-36.914,16.664-45.352c-14.555-2.953-29.109,5.484-33.539,6.961
					c-5.906,2.109-6.328,6.961-6.328,6.961L834.281,441.703L834.281,441.703z M866.344,447.188c-1.477,0-2.531-1.266-2.531-2.531
					c0-1.477,1.266-2.531,2.531-2.531c1.477,0,2.531,1.266,2.531,2.531C869.086,445.922,867.82,447.188,866.344,447.188
					L866.344,447.188z"/>
				<path fill="none" stroke="#050505" stroke-width="3.467" stroke-miterlimit="10" d="M854.742,516.797
					c-0.633,4.852-6.75,11.391-9.703,14.344c-0.844,0.844-0.844,2.32-0.211,3.375c1.055,1.266,2.32,2.953,3.797,5.695
					c2.953,5.273,9.914,4.852,9.914,4.852l14.977,5.695c1.266,0.422,2.109,1.898,2.109,3.164l-0.211,3.586
					c14.133-0.211,27.211-4.219,38.391-10.969c-1.266-25.523-18.773-34.383-18.773-34.383c-0.211-18.984-5.695-23.203-9.07-23.836
					c-1.266-0.422-2.32,1.055-2.32,2.32c-0.422,8.438-6.961,13.5-6.961,13.5C865.078,504.773,855.586,510.258,854.742,516.797
					L854.742,516.797z M863.813,523.336c-1.477,0-2.742-1.266-2.742-2.531c0-1.477,1.266-2.531,2.742-2.531s2.531,1.266,2.531,2.531
					C866.344,522.07,865.289,523.336,863.813,523.336L863.813,523.336z"/>
			</g>
			<circle fill="none" stroke="#050505" stroke-width="3.467" stroke-miterlimit="10" cx="879" cy="487.688" r="70.453"/>
		</g>
		<g>
			<polygon fill="none" stroke="#050505" stroke-width="3.467" stroke-miterlimit="10" points="923.719,409.641 1259.531,300.164 
				1329.141,372.727 1103.859,510.047 			"/>
			<path fill="none" stroke="#050505" stroke-width="3.467" stroke-miterlimit="10" d="M589.383,389.391
				c0,0,87.117-90.703,257.977-17.508c91.125,39.023,347.414,191.32,347.414,191.32l134.367-72.141l37.336,37.547l-64.336,100.617
				l64.336,49.992c0,0-30.164,35.227-125.086,22.57c0,0-156.726-20.461-426.094-139.852S589.383,389.391,589.383,389.391z"/>
			<polygon fill="none" stroke="#050505" stroke-width="3.467" stroke-miterlimit="10" points="720.586,769.922 772.477,542.32 
				939.961,613.617 788.086,807.891 			"/>
			<path fill="none" stroke="#050505" stroke-width="3.467" stroke-miterlimit="10" d="M735.352,414.07
				c0,0-89.859,15.609-145.969-24.68"/>
		</g>
	</g>
</g>
<g id="Layer_12" display="none">
	<g display="inline">
		<path fill="none" stroke="#050505" stroke-width="3.467" stroke-miterlimit="10" d="M955.781,221.484
			c-5.063,0-9.703,2.32-13.078,6.539L687.891,508.781l19.617,15.82l248.695-273.164l256.711,279.703l19.195-16.242L969.07,227.602
			C965.695,223.805,960.844,221.484,955.781,221.484L955.781,221.484z"/>
		<path fill="none" stroke="#050505" stroke-width="3.467" stroke-miterlimit="10" d="M928.148,409.008
			c-7.805,3.164-15.398,8.016-22.359,15.82c0,0-13.922,9.281-18.773,54.844"/>
		<path fill="none" stroke="#050505" stroke-width="3.467" stroke-miterlimit="10" d="M1063.148,445.5l-42.82-10.336
			c0,0-1.266-10.336-13.289-14.555c-8.859-3.164-39.234-20.672-69.188-14.344c11.391,17.297,36.492,59.695,34.383,93.656
			c-0.211,5.273-4.43,10.758-9.703,12.445c-4.852,1.688-13.711,3.797-24.469,3.797c-15.398,0-35.016-4.852-52.523-22.992
			c-0.422,5.906-0.633,12.234-0.633,18.984c-0.211,35.227-44.93,68.555-44.93,68.555l-5.906,12.445
			c12.234,26.156,31.219,48.727,54.844,64.969c1.055-16.875,5.273-29.953,10.125-39.867c9.281-18.773,22.148-29.109,28.688-33.539
			c1.477-38.812,13.922-49.992,24.469-52.734c3.164-0.844,6.539,0,9.281,1.898c2.953,2.32,5.063,5.906,5.273,9.914
			c0.633,10.336,6.75,17.719,9.703,20.672c4.641,0.422,9.281,1.266,13.5,2.32l3.586-35.227c0.633-5.273,5.273-9.914,10.547-10.547
			c20.039-2.953,64.969-14.766,67.922-63.281C1072.852,452.039,1068.211,446.766,1063.148,445.5L1063.148,445.5z M996.492,456.68
			c-2.953,0-5.484-2.531-5.484-5.484s2.531-5.484,5.484-5.484c2.953,0,5.484,2.531,5.484,5.484
			C1001.977,454.359,999.445,456.68,996.492,456.68L996.492,456.68z"/>
		<path fill="none" stroke="#050505" stroke-width="3.467" stroke-miterlimit="10" d="M1020.328,600.961
			c-1.687-13.711-21.094-25.102-45.984-26.578c0,0-13.289-10.336-14.133-27.844c-0.211-2.742-2.109-5.273-4.641-4.641
			c-6.75,1.687-18.141,10.125-18.563,49.359c0,0-36.492,18.352-39.023,71.297c23.414,13.922,50.414,22.359,79.523,22.781
			l-0.422-7.594c-0.211-2.742,1.898-5.695,4.219-6.539l31.008-11.602c0,0,14.555,0.844,20.672-10.125
			c2.953-5.484,5.906-9.281,8.016-11.813c1.688-2.109,1.688-5.062-0.211-6.75C1034.25,624.586,1021.594,611.086,1020.328,600.961
			L1020.328,600.961z M1001.977,614.25c-2.953,0-5.484-2.531-5.484-5.484s2.531-5.484,5.484-5.484s5.484,2.531,5.484,5.484
			S1004.93,614.25,1001.977,614.25L1001.977,614.25z"/>
	</g>
	<polyline display="inline" fill="none" stroke="#050505" stroke-width="3.467" stroke-miterlimit="10" points="1138.242,510.047 
		1138.242,827.93 777.539,827.93 777.539,510.047 	"/>
</g>
<g id="Layer_13" display="none">
	<g display="inline">
		<g>
			<g>
				<path fill="none" stroke="#050505" stroke-width="3.467" stroke-miterlimit="10" d="M1281.258,267.68H637.266
					c-10.969,0-20.039,9.07-20.039,20.039v507.727c0,10.969,9.07,20.039,20.039,20.039h643.992c10.969,0,20.039-9.07,20.039-20.039
					V287.719C1301.297,276.75,1292.438,267.68,1281.258,267.68z M1261.219,775.406H657.305V427.992h603.914V775.406z
					 M1261.219,387.914H657.305v-80.156h603.914V387.914z"/>
			</g>
		</g>
		<g>
			<g>
				<path fill="none" stroke="#050505" stroke-width="3.467" stroke-miterlimit="10" d="M785.555,327.797h-80.156
					c-10.969,0-20.039,9.07-20.039,20.039c0,10.969,9.07,20.039,20.039,20.039h80.156c10.969,0,20.039-9.07,20.039-20.039
					C805.594,336.867,796.734,327.797,785.555,327.797z"/>
			</g>
		</g>
		<g>
			<g>
				<path fill="none" stroke="#050505" stroke-width="3.467" stroke-miterlimit="10" d="M959.367,474.82
					c-70.031,0-126.984,56.953-126.984,126.984c0,69.82,56.953,126.984,126.984,126.984s126.984-56.953,126.984-126.984
					C1086.141,531.773,1029.188,474.82,959.367,474.82z M872.461,601.594c0-47.883,39.023-86.906,86.906-86.906
					c16.664,0,32.273,4.852,45.563,12.867L885.539,646.945C877.102,634.078,872.461,618.469,872.461,601.594z M959.367,688.5
					c-16.664,0-32.273-4.852-45.563-12.867l119.391-119.391c8.227,13.289,12.867,28.898,12.867,45.563
					C1046.063,649.477,1007.25,688.5,959.367,688.5z"/>
			</g>
		</g>
	</g>
</g>
<g id="Layer_14" display="none">
	<g display="inline">
		<path fill="none" stroke="#050505" stroke-width="3.3569" stroke-miterlimit="10" d="M1370.906,637.031
			c-67.922,6.539-82.898-50.414-118.969-91.758c0,36.492-3.164,68.133,1.266,98.508c2.32,15.398,16.664,30.586,28.688,42.609
			c13.711,13.5,21.516,26.789,19.406,46.617c-1.687,15.188-0.633,30.797-0.844,46.195c-0.844,48.305-8.016,54-59.906,46.195
			c2.531-7.172,3.164-17.508,7.594-19.617c22.992-11.18,17.086-31.641,14.977-48.516c-1.477-12.234-9.703-25.734-18.984-34.383
			c-19.195-17.719-43.031-30.586-61.172-49.359c-24.891-25.945-47.25-54.633-68.555-83.531
			c-7.805-10.758-13.711-17.719-27.211-12.656c-24.68,9.492-49.148,20.25-74.25,28.477c-29.109,9.492-58.43,18.773-88.383,24.469
			c-26.367,5.062-53.578,6.539-80.367,6.328c-16.664-0.211-22.57,6.328-23.203,20.461c-1.898,35.438-3.375,70.875-4.641,106.313
			c-1.477,44.93-33.539,70.453-80.789,61.383c3.375-5.695,5.063-12.445,9.281-14.977c22.781-14.133,27.844-36.914,27.844-60.117
			c-0.211-41.555-2.32-83.32-5.273-124.875c-0.633-8.859-6.328-19.195-12.656-25.734c-31.852-32.695-49.992-70.664-54.422-116.648
			c-2.742-28.266-11.391-55.898-18.773-83.32c-1.477-5.273-9.703-11.391-15.188-12.023c-22.148-2.531-44.719-2.953-67.078-4.219
			c-27.844-1.477-44.93-16.031-47.25-43.664c-0.633-6.117,5.063-14.977,10.336-18.563c8.859-5.695,20.672-6.75,29.953-12.023
			c8.438-4.852,15.188-12.867,22.359-19.828c9.703-9.281,17.297-22.57,28.688-28.055c38.813-18.773,78.68-7.805,105.469,25.734
			c6.328,7.805,13.711,14.766,19.617,22.781c45.352,64.336,111.797,86.273,185.414,90.914c45.141,2.742,90.914-1.688,135.844,1.266
			c86.273,5.906,164.109,26.578,201.234,119.18c10.547,26.156,33.117,47.461,49.992,71.297
			C1350.867,607.289,1360.781,622.266,1370.906,637.031z M651.609,267.68c-1.477,30.797-3.797,61.594-4.008,92.18
			c-0.211,17.086,11.391,20.672,25.523,15.398c26.367-9.914,45.141-27.633,55.688-60.539"/>
		<path fill="none" stroke="#050505" stroke-width="3.3569" stroke-miterlimit="10" d="M1205.109,705.164
			c10.125,9.07,16.242,16.875,15.188,30.586c-1.266,15.398-0.211,30.797-0.633,46.195c-1.688,47.883-9.07,52.102-61.594,42.188
			c2.742-6.75,3.797-12.234,6.961-16.031c28.266-34.383,25.945-60.75-7.805-90.914c-33.117-29.531-66.445-59.063-99.141-89.227
			c-6.961-6.539-11.391-15.82-16.875-23.625"/>
		<path fill="none" stroke="#050505" stroke-width="3.3569" stroke-miterlimit="10" d="M802.43,823.5
			c63.703-48.094,32.906-112.641,39.445-172.547c14.344-0.844,29.953-1.687,43.242-2.32c0,44.297,3.375,88.172-1.055,130.992
			C880.266,816.75,846.516,834.047,802.43,823.5z"/>
		<path fill="none" stroke="#050505" stroke-width="3.3569" stroke-miterlimit="10" d="M700.125,463.008
			c0,0,105.469-6.328,153.563-83.531c0,0,37.758,25.313,242.156,23.414c0,0,16.453,16.664,5.906,37.758
			s-63.703,30.375-68.766,110.32s-138.586,91.547-188.789,86.063C792.094,631.125,698.648,595.688,700.125,463.008z"/>
		<text transform="matrix(1 0 0 1 807.7033 532.9557)" font-family="'Arial-BoldMT'" font-size="85.9471">ESA</text>
	</g>
</g>
<g id="Layer_15" display="none">
	<g display="inline">
		<path fill="none" stroke="#050505" stroke-width="3.467" stroke-miterlimit="10" d="M1326.398,748.828h-72.984v-98.719
			c27.422-5.062,48.094-27.844,48.094-55.266c0-13.922-5.484-48.516-14.555-80.156c-12.867-45.352-27.211-66.445-44.93-66.445
			s-32.063,21.094-44.93,66.445c-9.07,31.641-14.555,66.234-14.555,80.156c0,27.422,20.672,50.414,48.094,55.266v98.719h-73.617
			V468.703c13.922-4.641,24.047-17.93,24.047-33.539V387.07c0-6.328-5.063-11.18-11.18-11.18h-12.867v-13.5h24.891
			c6.328,0,11.18-5.062,11.18-11.18c0-6.328-5.063-11.18-11.18-11.18h-72.141c-6.328,0-11.18,5.062-11.18,11.18
			c0,6.328,5.063,11.18,11.18,11.18h24.891v13.5h-12.867c-6.328,0-11.18,5.062-11.18,11.18v48.094
			c0,15.609,10.125,28.688,24.047,33.539v280.125h-39.445l-7.594-37.547h10.336c6.328,0,11.18-5.062,11.18-11.18
			c0-6.328-5.063-11.18-11.18-11.18h-24.891v-25.523h12.867c6.328,0,11.18-5.063,11.18-11.18c0-6.328-5.062-11.18-11.18-11.18
			h-12.867v-13.5h12.867c6.328,0,11.18-5.063,11.18-11.18c0-6.328-5.062-11.18-11.18-11.18H869.297
			c-6.328,0-11.18,5.063-11.18,11.18c0,6.328,5.063,11.18,11.18,11.18h12.867v13.5h-12.867c-6.328,0-11.18,5.063-11.18,11.18
			c0,6.328,5.063,11.18,11.18,11.18h12.867v25.523h-24.891c-6.328,0-11.18,5.063-11.18,11.18c0,6.328,5.063,11.18,11.18,11.18
			h10.336l-7.594,37.547h-87.75V638.297c47.25-5.695,84.164-45.984,84.164-94.711c0-84.797-81.844-261.773-85.219-269.367
			c-1.898-4.008-5.906-6.539-10.125-6.539s-8.438,2.531-10.336,6.539c-3.375,7.594-85.219,184.57-85.219,269.367
			c0,48.727,36.914,89.227,84.164,94.711v110.531h-97.031c-6.328,0-11.18,5.063-11.18,11.18c0,6.328,5.063,11.18,11.18,11.18
			h673.523c6.328,0,11.18-5.063,11.18-11.18C1337.578,753.891,1332.516,748.828,1326.398,748.828L1326.398,748.828z
			 M1205.32,594.633c0-10.125,4.43-40.078,12.656-70.453c12.023-44.086,22.148-52.313,24.047-53.367
			c1.898,1.266,12.023,9.281,24.047,53.367c8.226,30.375,12.656,60.328,12.656,70.453c0,14.977-10.758,27.844-25.524,32.273v-23.203
			c0-6.328-5.062-11.18-11.18-11.18c-6.328,0-11.18,5.063-11.18,11.18v23.203C1216.078,622.477,1205.32,609.82,1205.32,594.633
			L1205.32,594.633z M1133.18,398.461h25.523v36.914c0,6.961-5.695,12.867-12.867,12.867c-6.961,0-12.867-5.695-12.867-12.867
			v-36.914H1133.18z M688.102,543.586c0-62.648,50.625-185.836,72.984-236.883c22.148,51.047,72.984,174.234,72.984,236.883
			c0,36.281-26.789,66.656-61.594,72.141v-67.289l32.695-32.695c4.43-4.43,4.43-11.602,0-16.031c-4.43-4.43-11.602-4.43-16.031,0
			l-16.875,16.875v-20.883c0-6.328-5.062-11.18-11.18-11.18c-6.328,0-11.18,5.062-11.18,11.18v56.953l-16.875-16.875
			c-4.43-4.43-11.602-4.43-16.031,0s-4.43,11.602,0,16.031l32.695,32.695v31.219C714.891,610.242,688.102,579.867,688.102,543.586
			L688.102,543.586z M904.523,627.117h145.758v13.5H904.523L904.523,627.117L904.523,627.117z M904.523,663.188h145.758v25.523
			H904.523L904.523,663.188L904.523,663.188z M890.391,711.281h174.023l7.594,37.547H882.586L890.391,711.281z"/>
	</g>
</g>
</svg>
