<?xml version="1.0" encoding="utf-8"?>
<!-- Generator: Adobe Illustrator 17.0.0, SVG Export Plug-In . SVG Version: 6.00 Build 0)  -->
<!DOCTYPE svg PUBLIC "-//W3C//DTD SVG 1.1//EN" "http://www.w3.org/Graphics/SVG/1.1/DTD/svg11.dtd">
<svg version="1.1" id="Layer_2" xmlns="http://www.w3.org/2000/svg" xmlns:xlink="http://www.w3.org/1999/xlink" x="0px" y="0px"
	 width="91.5px" height="119.5px" viewBox="0 0 91.5 119.5" enable-background="new 0 0 91.5 119.5" xml:space="preserve">
<title>What-is-an-ESA</title>
<path fill="none" stroke="#000000" stroke-width="2" stroke-miterlimit="10" d="M82.658,30.656
	c-0.005-0.579-0.236-1.132-0.644-1.543L65.071,12.169l0,0c-0.415-0.414-0.978-0.647-1.564-0.646H16.475
	c-2.571,0.003-4.655,2.087-4.658,4.658v85.186c0.003,2.571,2.087,4.655,4.658,4.658h61.544c2.571-0.003,4.655-2.087,4.658-4.658
	V30.677C82.677,30.677,82.658,30.664,82.658,30.656z"/>
<path fill="none" stroke="#000000" stroke-width="2" stroke-miterlimit="10" d="M66.807,74.31h-39.16
	c-1.224,0-2.216,1.232-2.216,2.753s0.992,2.753,2.216,2.753l0,0h39.16c1.224,0,2.216-1.232,2.216-2.753S68.031,74.31,66.807,74.31z"
	/>
<path fill="none" stroke="#000000" stroke-width="2" stroke-miterlimit="10" d="M67.14,86.31H27.98
	c-1.224,0-2.216,1.232-2.216,2.753s0.992,2.753,2.216,2.753l0,0h39.16c1.224,0,2.216-1.232,2.216-2.753S68.364,86.31,67.14,86.31z"
	/>
<path d="M57.66,46.526c-0.25,0.161-0.323,0.494-0.164,0.746c1.227,1.913,1.877,4.14,1.872,6.412c0,3.016-1.113,5.331-3.305,6.876
	c-1.978,1.395-4.822,2.132-8.219,2.132s-6.24-0.738-8.219-2.132c-2.195-1.546-3.305-3.86-3.305-6.876
	c0-6.475,5.169-11.73,11.524-11.73c3.013-0.002,5.903,1.194,8.034,3.324c0.211,0.209,0.552,0.208,0.761-0.003
	c0.209-0.211,0.208-0.552-0.003-0.761l0,0c-2.332-2.331-5.495-3.639-8.792-3.636c-6.949,0-12.601,5.748-12.601,12.817
	c-0.026,1.578,0.318,3.14,1.004,4.562c0.642,1.267,1.589,2.354,2.755,3.165c2.164,1.522,5.213,2.33,8.842,2.33
	c3.629,0,6.678-0.808,8.839-2.33c1.167-0.81,2.113-1.898,2.755-3.165c0.691-1.431,1.036-3.004,1.006-4.593
	c0.004-2.48-0.704-4.908-2.041-6.996C58.235,46.425,57.905,46.362,57.66,46.526z"/>
<path d="M37.466,42.543c-0.022-1.116-0.42-2.192-1.129-3.055c-0.782-0.964-1.799-1.496-2.854-1.496s-2.072,0.521-2.867,1.496
	c-0.701,0.865-1.091,1.941-1.108,3.055c-0.056,2.2,1.682,4.03,3.882,4.086s4.03-1.682,4.086-3.882c0.002-0.068,0.002-0.136,0-0.204
	H37.466z M33.483,45.452c-1.605-0.003-2.906-1.304-2.909-2.909c0-1.577,1.303-3.483,2.909-3.483s2.906,1.905,2.906,3.483
	C36.388,44.148,35.088,45.449,33.483,45.452z"/>
<path d="M42.098,39.636c2.2-0.003,3.983-1.786,3.986-3.986c-0.019-1.12-0.418-2.201-1.131-3.065
	c-0.782-0.962-1.796-1.494-2.854-1.494s-2.07,0.521-2.867,1.494c-0.709,0.866-1.104,1.946-1.121,3.065
	C38.113,37.852,39.897,39.635,42.098,39.636z M42.098,32.168c1.611,0,2.909,1.905,2.909,3.483c-0.001,1.607-1.305,2.908-2.911,2.907
	c-1.605-0.001-2.905-1.302-2.907-2.907C39.189,34.073,40.487,32.168,42.098,32.168L42.098,32.168z"/>
<path d="M65.058,39.488c-0.782-0.964-1.799-1.496-2.854-1.496c-1.056,0-2.072,0.521-2.867,1.496
	c-0.71,0.865-1.108,1.944-1.129,3.063c-0.056,2.2,1.682,4.03,3.882,4.086c2.2,0.056,4.03-1.682,4.086-3.882
	c0.002-0.068,0.002-0.136,0-0.204C66.158,41.433,65.764,40.354,65.058,39.488z M62.204,45.459c-1.606-0.001-2.908-1.303-2.909-2.909
	c0-1.577,1.303-3.483,2.909-3.483s2.906,1.905,2.906,3.483c-0.006,1.602-1.304,2.898-2.906,2.901V45.459z"/>
<path d="M53.586,39.636c2.2-0.003,3.983-1.786,3.986-3.986c-0.019-1.12-0.418-2.201-1.131-3.065
	c-0.782-0.962-1.796-1.494-2.854-1.494s-2.07,0.521-2.854,1.494c-0.713,0.864-1.112,1.945-1.131,3.065
	C49.603,37.85,51.386,39.633,53.586,39.636z M53.586,32.168c1.611,0,2.909,1.905,2.909,3.483c-0.048,1.606-1.389,2.869-2.995,2.821
	c-1.538-0.046-2.775-1.282-2.821-2.821C50.679,34.073,51.975,32.168,53.586,32.168L53.586,32.168z"/>
<path d="M46.12,58.016h3.459c0.292-0.009,0.524-0.25,0.521-0.542V54.57h2.909c0.297-0.001,0.537-0.243,0.537-0.54v-3.446
	c0-0.297-0.24-0.537-0.537-0.537h-2.909v-2.909c0-0.297-0.24-0.538-0.537-0.54H46.12c-0.298,0-0.54,0.242-0.54,0.54v0v2.909h-2.909
	c-0.297,0-0.537,0.24-0.537,0.537v3.446c0,0.297,0.24,0.538,0.537,0.54h2.909v2.904c-0.003,0.297,0.235,0.539,0.532,0.542
	C46.115,58.016,46.118,58.016,46.12,58.016z M43.211,53.493v-2.369h2.909c0.297-0.001,0.537-0.243,0.537-0.54v-2.906h2.369v2.906
	c0,0.298,0.242,0.54,0.54,0.54l0,0h2.906v2.369h-2.893c-0.297,0-0.538,0.24-0.54,0.537v2.922H46.67V54.03
	c0-0.297-0.24-0.537-0.537-0.537H43.211z"/>
</svg>
